<?xml version="1.0" encoding="UTF-8" standalone="no"?>
<!-- Created with Inkscape (http://www.inkscape.org/) -->

<svg
   width="210mm"
   height="297mm"
   viewBox="0 0 210 297"
   version="1.1"
   id="svg5"
   inkscape:version="1.1.1 (3bf5ae0d25, 2021-09-20, custom)"
   sodipodi:docname="绘图.svg"
   xmlns:inkscape="http://www.inkscape.org/namespaces/inkscape"
   xmlns:sodipodi="http://sodipodi.sourceforge.net/DTD/sodipodi-0.dtd"
   xmlns="http://www.w3.org/2000/svg"
   xmlns:svg="http://www.w3.org/2000/svg">
  <sodipodi:namedview
     id="namedview7"
     pagecolor="#ffffff"
     bordercolor="#111111"
     borderopacity="1"
     inkscape:pageshadow="0"
     inkscape:pageopacity="0"
     inkscape:pagecheckerboard="1"
     inkscape:document-units="mm"
     showgrid="false"
     inkscape:zoom="0.21715225"
     inkscape:cx="-207.22788"
     inkscape:cy="704.57479"
     inkscape:window-width="1920"
     inkscape:window-height="1031"
     inkscape:window-x="0"
     inkscape:window-y="0"
     inkscape:window-maximized="1"
     inkscape:current-layer="layer1" />
  <defs
     id="defs2" />
  <g
     inkscape:label="图层 1"
     inkscape:groupmode="layer"
     id="layer1">
    <path
       id="path871"
       style="fill:#ffffff;fill-opacity:1;stroke:none;stroke-width:0.999999px;stroke-linecap:butt;stroke-linejoin:miter;stroke-opacity:1"
       d="M 111.27344,195.91406 95.835938,208.72852 196.71484,338.9707 333.50781,442.11914 345.38086,426.04688 212.73047,330.33398 Z m -0.0762,11.51172 a 4.4697333,4.4697333 0 0 1 4.46875,4.4707 4.4697333,4.4697333 0 0 1 -4.46875,4.46875 4.4697333,4.4697333 0 0 1 -4.47071,-4.46875 4.4697333,4.4697333 0 0 1 4.47071,-4.4707 z m 216.95117,214.49414 a 3.7548957,3.7548957 0 0 1 3.7539,3.75586 3.7548957,3.7548957 0 0 1 -3.7539,3.75391 3.7548957,3.7548957 0 0 1 -3.75586,-3.75391 3.7548957,3.7548957 0 0 1 3.75586,-3.75586 z"
       transform="scale(0.26458333)" />
    <path
       id="path873"
       style="fill:#ffffff;fill-opacity:1;stroke:none;stroke-width:0.999999px;stroke-linecap:butt;stroke-linejoin:miter;stroke-opacity:1"
       d="m 115.09766,146.33594 -10.46485,37.67187 181.51563,49.83203 10.22265,-37.23632 z m 17.24609,22.17968 a 3.7548957,3.7548957 0 0 1 3.75586,3.75391 3.7548957,3.7548957 0 0 1 -3.75586,3.75586 3.7548957,3.7548957 0 0 1 -3.75391,-3.75586 3.7548957,3.7548957 0 0 1 3.75391,-3.75391 z m 144.73437,38.9668 a 3.7548957,3.7548957 0 0 1 3.75391,3.75586 3.7548957,3.7548957 0 0 1 -3.75391,3.75391 3.7548957,3.7548957 0 0 1 -3.75585,-3.75391 3.7548957,3.7548957 0 0 1 3.75585,-3.75586 z"
       transform="scale(0.26458333)" />
    <path
       id="path875"
       style="fill:#ffffff;fill-opacity:1;stroke:none;stroke-width:0.999999px;stroke-linecap:butt;stroke-linejoin:miter;stroke-opacity:1"
       d="m 110.67578,51.060547 -9.42187,38.560547 166.50195,38.837886 c 0,0 15.45991,-5.33689 18.30078,-14.63086 2.81195,-9.19933 -9.22656,-23.394526 -9.22656,-23.394526 z m 127.54297,46.320312 a 3.7548957,3.7548957 0 0 1 3.75391,3.755861 3.7548957,3.7548957 0 0 1 -3.75391,3.7539 3.7548957,3.7548957 0 0 1 -3.75586,-3.7539 3.7548957,3.7548957 0 0 1 3.75586,-3.755861 z m 38.08203,9.195311 a 3.7548957,3.7548957 0 0 1 3.75586,3.75391 3.7548957,3.7548957 0 0 1 -3.75586,3.75586 3.7548957,3.7548957 0 0 1 -3.7539,-3.75586 3.7548957,3.7548957 0 0 1 3.7539,-3.75391 z"
       transform="scale(0.26458333)" />
    <path
       id="path1193"
       style="fill:#ffffff;fill-opacity:1;stroke:none;stroke-width:0.999999px;stroke-linecap:butt;stroke-linejoin:miter;stroke-opacity:1"
       d="m 102.66602,404.53711 -14.714848,30.4082 222.916018,119.45703 -281.833987,40.23633 6.357422,45.07031 324.279295,-44.77734 -3.79492,-59.0957 z m 1.07031,15.11133 a 3.7548957,3.7548957 0 0 1 3.7539,3.75586 3.7548957,3.7548957 0 0 1 -3.7539,3.7539 3.7548957,3.7548957 0 0 1 -3.755861,-3.7539 3.7548957,3.7548957 0 0 1 3.755861,-3.75586 z m 204.39844,156.89648 1.08984,7.88086 -258.021485,35.35352 -1.197266,-9.03321 z"
       transform="scale(0.26458333)" />
    <path
       id="path3497"
       style="fill:#ffffff;fill-opacity:1;stroke:none;stroke-width:0.999999px;stroke-linecap:butt;stroke-linejoin:miter;stroke-opacity:1"
       d="m 91.105469,680.92383 -3.361328,29.9414 117.859379,12.48438 3.20507,-30.20703 z m 8.642578,12.43945 a 4.1770988,4.1770988 0 0 1 4.177733,4.17774 4.1770988,4.1770988 0 0 1 -4.177733,4.17578 4.1770988,4.1770988 0 0 1 -4.177735,-4.17578 4.1770988,4.1770988 0 0 1 4.177735,-4.17774 z m 93.402343,10.3711 a 4.1770989,4.1770989 0 0 1 4.17773,4.17773 4.1770989,4.1770989 0 0 1 -4.17773,4.17773 4.1770989,4.1770989 0 0 1 -4.17773,-4.17773 4.1770989,4.1770989 0 0 1 4.17773,-4.17773 z"
       transform="scale(0.26458333)" />
    <path
       id="rect940"
       style="fill:#ffffff;fill-opacity:1;stroke:none;stroke-width:1.13386;stroke-linecap:round;stroke-linejoin:round;stroke-dashoffset:4"
       d="m 393.0918,191.29883 v 510.23633 h 32.12695 v -480 H 769.1543 v 480 h 32.12695 V 191.29883 Z"
       transform="scale(0.26458333)" />
    <path
       id="rect944"
       style="fill:#ffffff;fill-opacity:1;stroke:none;stroke-width:1.13386;stroke-linecap:round;stroke-linejoin:round;stroke-dashoffset:4"
       d="M 392.74023,828.24023 V 1281.7852 H 695.10156 V 828.24023 Z m 47.24415,66.14258 h 94.48828 v 151.18169 h -94.48828 z m 113.38476,0 h 94.48828 V 1045.5645 H 553.36914 Z M 439.98438,1064.4609 h 94.48828 v 151.1817 h -94.48828 z m 113.38476,0 h 94.48828 v 151.1817 h -94.48828 z"
       transform="scale(0.26458333)" />
    <path
       id="rect1546"
       style="fill:#ffffff;fill-opacity:1;stroke:none;stroke-width:1.13386;stroke-linecap:round;stroke-linejoin:round;stroke-dashoffset:4"
       d="m 48.341797,859.22852 v 34.01562 h 37.794922 v -34.01562 z m 27.976562,11.33789 a 5.6692913,5.6692913 0 0 1 5.669922,5.66992 5.6692913,5.6692913 0 0 1 -5.669922,5.66992 5.6692913,5.6692913 0 0 1 -5.667968,-5.66992 5.6692913,5.6692913 0 0 1 5.667968,-5.66992 z"
       transform="scale(0.26458333)" />
    <path
       id="path1570"
       style="fill:#ffffff;fill-opacity:1;stroke:none;stroke-width:1.13386;stroke-linecap:round;stroke-linejoin:round;stroke-dashoffset:4"
       d="M 42.40625,907.44727 A 17.007874,17.007874 0 0 0 25.398438,924.45508 17.007874,17.007874 0 0 0 42.40625,941.46289 17.007874,17.007874 0 0 0 59.414062,924.45508 17.007874,17.007874 0 0 0 42.40625,907.44727 Z m 0,11.33789 a 5.6692913,5.6692913 0 0 1 5.669922,5.66992 5.6692913,5.6692913 0 0 1 -5.669922,5.66797 5.6692913,5.6692913 0 0 1 -5.667969,-5.66797 5.6692913,5.6692913 0 0 1 5.667969,-5.66992 z"
       transform="scale(0.26458333)" />
  </g>
</svg>
