# FreeCAD v0.19 build24291 (Git) Arch module
# http://www.freecadweb.org
mtllib cad-Cut011.mtl
o Cut011
usemtl color_ffffff
v 29.441097 -51.835594 0.0
v 25.356592 -55.226086 0.0
v 29.441097 -51.835594 2.5
v 25.356592 -55.226086 2.5
v 56.284935 -87.400864 0.0
v 56.284935 -87.400864 2.5
v 52.047466 -89.685997 0.0
v 52.047466 -89.685997 2.5
v 28.709263 -57.008724 0.0
v 28.466742 -56.763008 0.0
v 28.308062 -56.464851 0.0
v 29.040504 -57.183861 0.0
v 28.254763 -56.262066 0.0
v 28.23806 -56.064278 0.0
v 29.420937 -57.246632 0.0
v 29.618679 -57.229939 0.0
v 28.300865 -55.683754 0.0
v 29.821415 -57.176666 0.0
v 86.020996 -113.213692 0.0
v 88.240608 -116.977356 0.0
v 86.224739 -113.420097 0.0
v 85.88768 -112.963226 0.0
v 86.503006 -113.567215 0.0
v 85.842896 -112.79287 0.0
v 30.119503 -57.018074 0.0
v 28.476097 -55.35244 0.0
v 85.828857 -112.626717 0.0
v 86.822601 -113.619934 0.0
v 86.988708 -113.605911 0.0
v 85.881615 -112.30703 0.0
v 30.365196 -56.775681 0.0
v 87.159012 -113.56115 0.0
v 28.721941 -55.109898 0.0
v 87.409409 -113.427925 0.0
v 86.028824 -112.028687 0.0
v 30.540384 -56.444588 0.0
v 87.615799 -113.224312 0.0
v 86.235359 -111.824921 0.0
v 30.603292 -56.064278 0.0
v 30.586678 -55.866478 0.0
v 86.485962 -111.691658 0.0
v 30.533466 -55.66367 0.0
v 86.656387 -111.646935 0.0
v 86.822601 -111.63298 0.0
v 87.142159 -111.685867 0.0
v 29.020233 -54.951263 0.0
v 29.223093 -54.898026 0.0
v 29.420937 -54.881405 0.0
v 29.801338 -54.944344 0.0
v 30.132504 -55.119625 0.0
v 30.374918 -55.365448 0.0
v 91.382019 -112.724899 0.0
v 87.420357 -111.83313 0.0
v 87.623993 -112.039642 0.0
v 87.757172 -112.290176 0.0
v 87.801865 -112.460548 0.0
v 87.815819 -112.626717 0.0
v 87.762962 -112.94619 0.0
v 28.709263 -57.008724 2.5
v 28.466742 -56.763008 2.5
v 28.308062 -56.464851 2.5
v 29.040504 -57.183861 2.5
v 28.254763 -56.262066 2.5
v 28.23806 -56.064278 2.5
v 29.420937 -57.246632 2.5
v 29.618679 -57.229939 2.5
v 28.300865 -55.683754 2.5
v 29.821415 -57.176666 2.5
v 86.020996 -113.213692 2.5
v 88.240608 -116.977356 2.5
v 86.224739 -113.420097 2.5
v 85.88768 -112.963226 2.5
v 86.503006 -113.567215 2.5
v 85.842896 -112.79287 2.5
v 30.119503 -57.018074 2.5
v 28.476097 -55.35244 2.5
v 85.828857 -112.626717 2.5
v 86.822601 -113.619934 2.5
v 86.988708 -113.605911 2.5
v 85.881615 -112.30703 2.5
v 30.365196 -56.775681 2.5
v 87.159012 -113.56115 2.5
v 28.721941 -55.109898 2.5
v 87.409409 -113.427925 2.5
v 86.028824 -112.028687 2.5
v 30.540384 -56.444588 2.5
v 87.615799 -113.224312 2.5
v 86.235359 -111.824921 2.5
v 30.603292 -56.064278 2.5
v 30.586678 -55.866478 2.5
v 86.485962 -111.691658 2.5
v 30.533466 -55.66367 2.5
v 86.656387 -111.646935 2.5
v 86.822601 -111.63298 2.5
v 87.142159 -111.685867 2.5
v 29.020233 -54.951263 2.5
v 29.223093 -54.898026 2.5
v 29.420937 -54.881405 2.5
v 29.801338 -54.944344 2.5
v 30.132504 -55.119625 2.5
v 30.374918 -55.365448 2.5
v 91.382019 -112.724899 2.5
v 87.420357 -111.83313 2.5
v 87.623993 -112.039642 2.5
v 87.757172 -112.290176 2.5
v 87.801865 -112.460548 2.5
v 87.815819 -112.626717 2.5
v 87.762962 -112.94619 2.5
vn -0.6387087106704712 0.7694486379623413 0.0
vn -0.6387087106704712 0.7694486379623413 0.0
vn 0.7981662154197693 0.6024372577667236 -0.0
vn 0.7981662154197693 0.6024372577667236 0.0
vn -0.7905877828598022 -0.6123486161231995 0.0
vn -0.7905877828598022 -0.6123486161231995 0.0
vn 0.0 0.0 -1.0
vn 0.0 0.0 -1.0
vn 0.0 0.0 -1.0
vn 0.0 0.0 -1.0
vn 0.0 0.0 -1.0
vn 0.0 0.0 -1.0
vn 0.0 0.0 -1.0
vn 0.0 0.0 -1.0
vn 0.0 0.0 -1.0
vn 0.0 0.0 -1.0
vn 0.0 0.0 -1.0
vn 0.0 0.0 -1.0
vn 0.0 0.0 -1.0
vn 0.0 0.0 -1.0
vn 0.0 0.0 -1.0
vn 0.0 0.0 -1.0
vn 0.0 0.0 -1.0
vn 0.0 0.0 -1.0
vn 0.0 0.0 -1.0
vn 0.0 0.0 -1.0
vn 0.0 0.0 -1.0
vn 0.0 -0.0 -1.0
vn 0.0 0.0 -1.0
vn 0.0 0.0 -1.0
vn 0.0 0.0 -1.0
vn 0.0 0.0 -1.0
vn 0.0 0.0 -1.0
vn 0.0 0.0 -1.0
vn 0.0 0.0 -1.0
vn 0.0 0.0 -1.0
vn 0.0 0.0 -1.0
vn 0.0 0.0 -1.0
vn 0.0 0.0 -1.0
vn 0.0 0.0 -1.0
vn 0.0 0.0 -1.0
vn 0.0 0.0 -1.0
vn 0.0 0.0 -1.0
vn 0.0 0.0 -1.0
vn 0.0 0.0 -1.0
vn 0.0 0.0 -1.0
vn 0.0 0.0 -1.0
vn 0.0 0.0 -1.0
vn 0.0 0.0 -1.0
vn 0.0 0.0 -1.0
vn 0.0 0.0 -1.0
vn 0.0 0.0 -1.0
vn 0.0 0.0 -1.0
vn 0.0 0.0 -1.0
vn 0.0 0.0 -1.0
vn 0.0 0.0 -1.0
vn 0.0 0.0 -1.0
vn 0.0 0.0 -1.0
vn 0.0 -0.0 -1.0
vn 0.0 -0.0 -1.0
vn 0.0 0.0 -1.0
vn 0.0 0.0 -1.0
vn 0.0 0.0 1.0
vn 0.0 0.0 1.0
vn 0.0 0.0 1.0
vn 0.0 0.0 1.0
vn 0.0 0.0 1.0
vn 0.0 0.0 1.0
vn 0.0 0.0 1.0
vn 0.0 0.0 1.0
vn 0.0 0.0 1.0
vn 0.0 0.0 1.0
vn 0.0 0.0 1.0
vn 0.0 0.0 1.0
vn 0.0 0.0 1.0
vn 0.0 0.0 1.0
vn 0.0 0.0 1.0
vn 0.0 0.0 1.0
vn 0.0 0.0 1.0
vn 0.0 0.0 1.0
vn 0.0 0.0 1.0
vn 0.0 0.0 1.0
vn 0.0 0.0 1.0
vn 0.0 0.0 1.0
vn 0.0 0.0 1.0
vn 0.0 0.0 1.0
vn 0.0 0.0 1.0
vn 0.0 0.0 1.0
vn 0.0 0.0 1.0
vn 0.0 0.0 1.0
vn 0.0 0.0 1.0
vn 0.0 0.0 1.0
vn 0.0 0.0 1.0
vn 0.0 0.0 1.0
vn 0.0 0.0 1.0
vn 0.0 0.0 1.0
vn 0.0 0.0 1.0
vn 0.0 0.0 1.0
vn 0.0 0.0 1.0
vn 0.0 0.0 1.0
vn 0.0 0.0 1.0
vn 0.0 0.0 1.0
vn 0.0 0.0 1.0
vn 0.0 0.0 1.0
vn 0.0 0.0 1.0
vn 0.0 0.0 1.0
vn 0.0 0.0 1.0
vn 0.0 0.0 1.0
vn 0.0 0.0 1.0
vn 0.0 0.0 1.0
vn 0.0 0.0 1.0
vn 0.0 0.0 1.0
vn 0.0 0.0 1.0
vn 0.0 0.0 1.0
vn 0.0 0.0 1.0
vn 0.0 0.0 1.0
vn 0.0 0.0 1.0
vn 0.0 0.0 1.0
vn 0.5851281881332397 0.8109407424926758 -0.0
vn 0.5851281881332397 0.8109407424926758 0.0
vn -0.6020663976669312 -0.798445999622345 0.0
vn -0.6020663976669312 -0.798445999622345 0.0
vn 0.8043306469917297 -0.5941819548606873 0.0
vn 0.8043306469917297 -0.5941819548606873 0.0
vn 0.9866548776626587 -0.16282561421394348 0.0
vn 0.9866548776626587 -0.16282561421394348 0.0
vn 0.8839835524559021 -0.4675180912017822 0.0
vn 0.8839835524559021 -0.4675180912017822 0.0
vn 0.7023178935050964 -0.7118633985519409 0.0
vn 0.7023178935050964 -0.7118633985519409 0.0
vn 0.4695121943950653 -0.8829259276390076 0.0
vn 0.4695121943950653 -0.8829259276390076 0.0
vn 0.2538282573223114 -0.9672493934631348 0.0
vn 0.2538282573223114 -0.9672493934631348 0.0
vn 0.08365869522094727 -0.996494472026825 0.0
vn 0.08365869522094727 -0.996494472026825 0.0
vn 0.16275636851787567 0.9866663217544556 -0.0
vn 0.16275636851787567 0.9866663217544556 0.0
vn 0.4673909544944763 0.884050726890564 0.0
vn 0.4673909544944763 0.884050726890564 -0.0
vn 0.7116822600364685 0.7025014758110046 0.0
vn 0.7116822600364685 0.7025014758110046 -0.0
vn 0.8827412128448486 0.4698595702648163 0.0
vn 0.8827412128448486 0.4698595702648163 -0.0
vn 0.9671390056610107 0.25424811244010925 0.0
vn 0.9671390056610107 0.25424811244010925 -0.0
vn 0.9964497685432434 0.08418898284435272 0.0
vn 0.9964497685432434 0.08418898284435272 -0.0
vn -0.9865880608558655 0.16322973370552063 0.0
vn -0.9865880608558655 0.16322973370552063 0.0
vn -0.88388991355896 0.4676949679851532 0.0
vn -0.88388991355896 0.4676949679851532 0.0
vn -0.7023012042045593 0.7118799090385437 0.0
vn -0.7023012042045593 0.7118799090385437 0.0
vn -0.4697084426879883 0.8828216195106506 0.0
vn -0.4697084426879883 0.8828216195106506 0.0
vn -0.25420111417770386 0.9671513438224792 0.0
vn -0.25420111417770386 0.9671513438224792 0.0
vn -0.08412113040685654 0.9964554905891418 0.0
vn -0.08412113040685654 0.9964554905891418 0.0
vn -0.163279727101326 -0.9865798354148865 0.0
vn -0.163279727101326 -0.9865798354148865 0.0
vn -0.4678409695625305 -0.8838127255439758 0.0
vn -0.4678409695625305 -0.8838127255439758 0.0
vn -0.7120480537414551 -0.7021307349205017 0.0
vn -0.7120480537414551 -0.7021307349205017 0.0
vn -0.8829952478408813 -0.4693819582462311 0.0
vn -0.8829952478408813 -0.4693819582462311 0.0
vn -0.9672722816467285 -0.2537405788898468 0.0
vn -0.9672722816467285 -0.2537405788898468 0.0
vn -0.9964925646781921 -0.08368158340454102 0.0
vn -0.9964925646781921 -0.08368158340454102 0.0
vn 0.9866514801979065 -0.1628461629152298 0.0
vn 0.9866514801979065 -0.1628461629152298 0.0
vn 0.8839750289916992 -0.4675341546535492 0.0
vn 0.8839750289916992 -0.4675341546535492 0.0
vn 0.7023105025291443 -0.7118707299232483 0.0
vn 0.7023105025291443 -0.7118707299232483 0.0
vn 0.46953946352005005 -0.8829114437103271 0.0
vn 0.46953946352005005 -0.8829114437103271 0.0
vn 0.25384101271629333 -0.9672459363937378 0.0
vn 0.25384101271629333 -0.9672459363937378 0.0
vn 0.08371409773826599 -0.9964898228645325 0.0
vn 0.08371409773826599 -0.9964898228645325 0.0
vn 0.16279762983322144 0.9866594672203064 -0.0
vn 0.16279762983322144 0.9866594672203064 0.0
vn 0.4674152135848999 0.8840379118919373 0.0
vn 0.4674152135848999 0.8840379118919373 -0.0
vn 0.7117184996604919 0.702464759349823 0.0
vn 0.7117184996604919 0.702464759349823 -0.0
vn 0.882766842842102 0.4698113203048706 0.0
vn 0.882766842842102 0.4698113203048706 -0.0
vn 0.9671516418457031 0.25420045852661133 0.0
vn 0.9671516418457031 0.25420045852661133 -0.0
vn 0.9964532852172852 0.08414763957262039 0.0
vn 0.9964532852172852 0.08414763957262039 -0.0
vn -0.16323411464691162 -0.986587405204773 0.0
vn -0.16323411464691162 -0.986587405204773 0.0
vn -0.46780163049697876 -0.8838334679603577 0.0
vn -0.46780163049697876 -0.8838334679603577 0.0
vn -0.7120258212089539 -0.7021532654762268 0.0
vn -0.7120258212089539 -0.7021532654762268 0.0
vn -0.8829707503318787 -0.46942800283432007 0.0
vn -0.8829707503318787 -0.46942800283432007 0.0
vn -0.9672613739967346 -0.25378215312957764 0.0
vn -0.9672613739967346 -0.25378215312957764 0.0
vn -0.9964906573295593 -0.08370391279459 0.0
vn -0.9964906573295593 -0.08370391279459 0.0
vn -0.9865937829017639 0.16319529712200165 0.0
vn -0.9865937829017639 0.16319529712200165 0.0
vn -0.8838942646980286 0.4676867425441742 0.0
vn -0.8838942646980286 0.4676867425441742 0.0
vn -0.70231032371521 0.7118709087371826 0.0
vn -0.70231032371521 0.7118709087371826 0.0
vn -0.4696931838989258 0.8828297853469849 0.0
vn -0.4696931838989258 0.8828297853469849 0.0
vn -0.25413942337036133 0.9671674966812134 0.0
vn -0.25413942337036133 0.9671674966812134 0.0
vn -0.08411926031112671 0.9964556694030762 0.0
vn -0.08411926031112671 0.9964556694030762 0.0
f 1//1 2//1 3//1 
f 3//2 2//2 4//2 
f 5//3 1//3 6//3 
f 6//4 1//4 3//4 
f 2//5 7//5 4//5 
f 4//6 7//6 8//6 
f 2//7 9//7 7//7 
f 2//8 10//8 9//8 
f 2//9 11//9 10//9 
f 9//10 12//10 7//10 
f 2//11 13//11 11//11 
f 2//12 14//12 13//12 
f 12//13 15//13 7//13 
f 15//14 16//14 7//14 
f 2//15 17//15 14//15 
f 16//16 18//16 7//16 
f 7//17 19//17 20//17 
f 20//18 19//18 21//18 
f 7//19 22//19 19//19 
f 21//20 23//20 20//20 
f 7//21 24//21 22//21 
f 18//22 25//22 7//22 
f 2//23 26//23 17//23 
f 7//24 27//24 24//24 
f 23//25 28//25 20//25 
f 28//26 29//26 20//26 
f 7//27 30//27 27//27 
f 5//28 30//28 7//28 
f 7//29 31//29 5//29 
f 25//30 31//30 7//30 
f 29//31 32//31 20//31 
f 2//32 33//32 26//32 
f 32//33 34//33 20//33 
f 5//34 35//34 30//34 
f 31//35 36//35 5//35 
f 34//36 37//36 20//36 
f 5//37 38//37 35//37 
f 36//38 39//38 5//38 
f 39//39 40//39 5//39 
f 5//40 41//40 38//40 
f 40//41 42//41 5//41 
f 5//42 43//42 41//42 
f 5//43 44//43 43//43 
f 5//44 45//44 44//44 
f 42//45 1//45 5//45 
f 33//46 1//46 46//46 
f 46//47 1//47 47//47 
f 47//48 1//48 48//48 
f 48//49 1//49 49//49 
f 49//50 1//50 50//50 
f 50//51 1//51 51//51 
f 51//52 1//52 42//52 
f 2//53 1//53 33//53 
f 45//54 52//54 53//54 
f 53//55 52//55 54//55 
f 54//56 52//56 55//56 
f 55//57 52//57 56//57 
f 56//58 52//58 57//58 
f 57//59 52//59 58//59 
f 58//60 52//60 37//60 
f 37//61 52//61 20//61 
f 5//62 52//62 45//62 
f 59//63 4//63 8//63 
f 60//64 4//64 59//64 
f 61//65 4//65 60//65 
f 62//66 59//66 8//66 
f 63//67 4//67 61//67 
f 64//68 4//68 63//68 
f 65//69 62//69 8//69 
f 66//70 65//70 8//70 
f 67//71 4//71 64//71 
f 68//72 66//72 8//72 
f 69//73 8//73 70//73 
f 69//74 70//74 71//74 
f 72//75 8//75 69//75 
f 73//76 71//76 70//76 
f 74//77 8//77 72//77 
f 75//78 68//78 8//78 
f 76//79 4//79 67//79 
f 77//80 8//80 74//80 
f 78//81 73//81 70//81 
f 79//82 78//82 70//82 
f 80//83 8//83 77//83 
f 80//84 6//84 8//84 
f 81//85 8//85 6//85 
f 81//86 75//86 8//86 
f 82//87 79//87 70//87 
f 83//88 4//88 76//88 
f 84//89 82//89 70//89 
f 85//90 6//90 80//90 
f 86//91 81//91 6//91 
f 87//92 84//92 70//92 
f 88//93 6//93 85//93 
f 89//94 86//94 6//94 
f 90//95 89//95 6//95 
f 91//96 6//96 88//96 
f 92//97 90//97 6//97 
f 93//98 6//98 91//98 
f 94//99 6//99 93//99 
f 95//100 6//100 94//100 
f 3//101 92//101 6//101 
f 3//102 83//102 96//102 
f 3//103 96//103 97//103 
f 3//104 97//104 98//104 
f 3//105 98//105 99//105 
f 3//106 99//106 100//106 
f 3//107 100//107 101//107 
f 3//108 101//108 92//108 
f 3//109 4//109 83//109 
f 102//110 95//110 103//110 
f 102//111 103//111 104//111 
f 102//112 104//112 105//112 
f 102//113 105//113 106//113 
f 102//114 106//114 107//114 
f 102//115 107//115 108//115 
f 102//116 108//116 87//116 
f 102//117 87//117 70//117 
f 102//118 6//118 95//118 
f 52//119 5//119 102//119 
f 102//120 5//120 6//120 
f 7//121 20//121 8//121 
f 8//122 20//122 70//122 
f 20//123 52//123 70//123 
f 70//124 52//124 102//124 
f 27//125 30//125 77//125 
f 77//126 30//126 80//126 
f 80//127 35//127 85//127 
f 30//128 35//128 80//128 
f 85//129 38//129 88//129 
f 35//130 38//130 85//130 
f 88//131 41//131 91//131 
f 38//132 41//132 88//132 
f 91//133 43//133 93//133 
f 41//134 43//134 91//134 
f 93//135 44//135 94//135 
f 43//136 44//136 93//136 
f 28//137 23//137 78//137 
f 78//138 23//138 73//138 
f 73//139 21//139 71//139 
f 23//140 21//140 73//140 
f 71//141 19//141 69//141 
f 21//142 19//142 71//142 
f 69//143 22//143 72//143 
f 19//144 22//144 69//144 
f 72//145 24//145 74//145 
f 22//146 24//146 72//146 
f 74//147 27//147 77//147 
f 24//148 27//148 74//148 
f 57//149 58//149 107//149 
f 107//150 58//150 108//150 
f 108//151 37//151 87//151 
f 58//152 37//152 108//152 
f 87//153 34//153 84//153 
f 37//154 34//154 87//154 
f 84//155 32//155 82//155 
f 34//156 32//156 84//156 
f 82//157 29//157 79//157 
f 32//158 29//158 82//158 
f 79//159 28//159 78//159 
f 29//160 28//160 79//160 
f 44//161 45//161 94//161 
f 94//162 45//162 95//162 
f 95//163 53//163 103//163 
f 45//164 53//164 95//164 
f 103//165 54//165 104//165 
f 53//166 54//166 103//166 
f 104//167 55//167 105//167 
f 54//168 55//168 104//168 
f 105//169 56//169 106//169 
f 55//170 56//170 105//170 
f 106//171 57//171 107//171 
f 56//172 57//172 106//172 
f 14//173 17//173 64//173 
f 64//174 17//174 67//174 
f 67//175 26//175 76//175 
f 17//176 26//176 67//176 
f 76//177 33//177 83//177 
f 26//178 33//178 76//178 
f 83//179 46//179 96//179 
f 33//180 46//180 83//180 
f 96//181 47//181 97//181 
f 46//182 47//182 96//182 
f 97//183 48//183 98//183 
f 47//184 48//184 97//184 
f 15//185 12//185 65//185 
f 65//186 12//186 62//186 
f 62//187 9//187 59//187 
f 12//188 9//188 62//188 
f 59//189 10//189 60//189 
f 9//190 10//190 59//190 
f 60//191 11//191 61//191 
f 10//192 11//192 60//192 
f 61//193 13//193 63//193 
f 11//194 13//194 61//194 
f 63//195 14//195 64//195 
f 13//196 14//196 63//196 
f 48//197 49//197 98//197 
f 98//198 49//198 99//198 
f 99//199 50//199 100//199 
f 49//200 50//200 99//200 
f 100//201 51//201 101//201 
f 50//202 51//202 100//202 
f 101//203 42//203 92//203 
f 51//204 42//204 101//204 
f 92//205 40//205 90//205 
f 42//206 40//206 92//206 
f 90//207 39//207 89//207 
f 40//208 39//208 90//208 
f 39//209 36//209 89//209 
f 89//210 36//210 86//210 
f 86//211 31//211 81//211 
f 36//212 31//212 86//212 
f 81//213 25//213 75//213 
f 31//214 25//214 81//214 
f 75//215 18//215 68//215 
f 25//216 18//216 75//216 
f 68//217 16//217 66//217 
f 18//218 16//218 68//218 
f 66//219 15//219 65//219 
f 16//220 15//220 66//220 
