# FreeCAD v0.19 build24291 (Git) Arch module
# http://www.freecadweb.org
mtllib cad-Cut003.mtl
o Cut003
usemtl color_ffffff
v 119.912521 -219.138565 0.0
v 119.912521 -339.139008 2.5
v 119.912521 -219.138565 2.5
v 119.912521 -339.139008 0.0
v 199.912292 -219.138565 0.0
v 199.912292 -219.138565 2.5
v 199.912292 -339.139008 0.0
v 199.912292 -339.139008 2.5
v 132.412537 -321.638763 0.0
v 157.412552 -321.638763 0.0
v 132.412537 -281.638611 0.0
v 162.412247 -321.638763 0.0
v 187.412277 -321.638763 0.0
v 157.412552 -281.638611 0.0
v 157.412552 -276.638947 0.0
v 132.412537 -276.638947 0.0
v 162.412247 -281.638611 0.0
v 162.412247 -276.638947 0.0
v 132.412537 -236.638779 0.0
v 187.412277 -281.638611 0.0
v 187.412277 -276.638947 0.0
v 157.412552 -236.638779 0.0
v 162.412247 -236.638779 0.0
v 187.412277 -236.638779 0.0
v 157.412552 -321.638763 2.5
v 132.412537 -321.638763 2.5
v 132.412537 -281.638611 2.5
v 162.412247 -321.638763 2.5
v 187.412277 -321.638763 2.5
v 157.412552 -281.638611 2.5
v 157.412552 -276.638947 2.5
v 132.412537 -276.638947 2.5
v 162.412247 -281.638611 2.5
v 162.412247 -276.638947 2.5
v 132.412537 -236.638779 2.5
v 187.412277 -281.638611 2.5
v 187.412277 -276.638947 2.5
v 157.412552 -236.638779 2.5
v 162.412247 -236.638779 2.5
v 187.412277 -236.638779 2.5
vn -1.0 0.0 0.0
vn -1.0 0.0 0.0
vn 0.0 1.0 -0.0
vn 0.0 1.0 0.0
vn 0.0 -1.0 0.0
vn 0.0 -1.0 0.0
vn 0.0 -0.0 -1.0
vn 0.0 0.0 -1.0
vn 0.0 -0.0 -1.0
vn -0.0 -0.0 -1.0
vn 0.0 0.0 -1.0
vn 0.0 0.0 -1.0
vn 0.0 0.0 -1.0
vn 0.0 0.0 -1.0
vn 0.0 0.0 -1.0
vn 0.0 0.0 -1.0
vn 0.0 0.0 -1.0
vn 0.0 0.0 -1.0
vn 0.0 0.0 -1.0
vn 0.0 0.0 -1.0
vn 0.0 0.0 -1.0
vn 0.0 0.0 -1.0
vn 0.0 0.0 -1.0
vn 0.0 0.0 -1.0
vn 0.0 0.0 -1.0
vn 0.0 0.0 -1.0
vn 0.0 0.0 -1.0
vn 0.0 0.0 -1.0
vn 0.0 0.0 -1.0
vn 0.0 0.0 -1.0
vn 0.0 0.0 -1.0
vn 0.0 0.0 -1.0
vn 0.0 0.0 1.0
vn 0.0 0.0 1.0
vn 0.0 0.0 1.0
vn 0.0 0.0 1.0
vn 0.0 0.0 1.0
vn 0.0 0.0 1.0
vn 0.0 0.0 1.0
vn 0.0 0.0 1.0
vn 0.0 0.0 1.0
vn 0.0 0.0 1.0
vn 0.0 0.0 1.0
vn 0.0 0.0 1.0
vn 0.0 0.0 1.0
vn 0.0 0.0 1.0
vn 0.0 0.0 1.0
vn 0.0 0.0 1.0
vn 0.0 0.0 1.0
vn 0.0 0.0 1.0
vn 0.0 0.0 1.0
vn 0.0 0.0 1.0
vn 0.0 0.0 1.0
vn 0.0 0.0 1.0
vn 0.0 0.0 1.0
vn 0.0 0.0 1.0
vn 0.0 0.0 1.0
vn 0.0 0.0 1.0
vn 1.0 0.0 0.0
vn 1.0 0.0 0.0
vn 1.0 0.0 0.0
vn 1.0 0.0 0.0
vn 0.0 1.0 -0.0
vn 0.0 1.0 0.0
vn 0.0 -1.0 0.0
vn 0.0 -1.0 0.0
vn -1.0 0.0 0.0
vn -1.0 0.0 0.0
vn 1.0 0.0 0.0
vn 1.0 0.0 0.0
vn 0.0 1.0 -0.0
vn 0.0 1.0 0.0
vn -1.0 0.0 0.0
vn -1.0 0.0 0.0
vn 0.0 -1.0 0.0
vn 0.0 -1.0 0.0
vn 1.0 0.0 0.0
vn 1.0 -0.0 0.0
vn 0.0 1.0 -0.0
vn 0.0 1.0 0.0
vn 0.0 -1.0 0.0
vn 0.0 -1.0 0.0
vn -1.0 0.0 0.0
vn -1.0 -0.0 0.0
vn 1.0 0.0 0.0
vn 1.0 -0.0 0.0
vn 0.0 1.0 -0.0
vn 0.0 1.0 0.0
vn 0.0 -1.0 0.0
vn 0.0 -1.0 0.0
vn -1.0 0.0 0.0
vn -1.0 -0.0 0.0
f 1//1 2//1 3//1 
f 1//2 4//2 2//2 
f 5//3 1//3 6//3 
f 6//4 1//4 3//4 
f 4//5 7//5 2//5 
f 2//6 7//6 8//6 
f 9//7 10//7 4//7 
f 4//8 11//8 9//8 
f 10//9 7//9 4//9 
f 12//10 7//10 10//10 
f 12//11 13//11 7//11 
f 10//12 14//12 12//12 
f 11//13 15//13 14//13 
f 16//14 15//14 11//14 
f 14//15 17//15 12//15 
f 15//16 18//16 14//16 
f 14//17 18//17 17//17 
f 16//18 1//18 19//18 
f 4//19 1//19 11//19 
f 11//20 1//20 16//20 
f 13//21 20//21 7//21 
f 17//22 21//22 20//22 
f 18//23 21//23 17//23 
f 1//24 22//24 19//24 
f 22//25 23//25 15//25 
f 15//26 23//26 18//26 
f 23//27 5//27 24//27 
f 24//28 5//28 21//28 
f 21//29 5//29 20//29 
f 20//30 5//30 7//30 
f 1//31 5//31 22//31 
f 22//32 5//32 23//32 
f 25//33 26//33 2//33 
f 27//34 2//34 26//34 
f 8//35 25//35 2//35 
f 8//36 28//36 25//36 
f 29//37 28//37 8//37 
f 30//38 25//38 28//38 
f 31//39 27//39 30//39 
f 31//40 32//40 27//40 
f 33//41 30//41 28//41 
f 34//42 31//42 30//42 
f 34//43 30//43 33//43 
f 3//44 32//44 35//44 
f 3//45 2//45 27//45 
f 3//46 27//46 32//46 
f 36//47 29//47 8//47 
f 37//48 33//48 36//48 
f 37//49 34//49 33//49 
f 38//50 3//50 35//50 
f 39//51 38//51 31//51 
f 39//52 31//52 34//52 
f 6//53 39//53 40//53 
f 6//54 40//54 37//54 
f 6//55 37//55 36//55 
f 6//56 36//56 8//56 
f 6//57 3//57 38//57 
f 6//58 38//58 39//58 
f 7//59 6//59 8//59 
f 7//60 5//60 6//60 
f 9//61 27//61 26//61 
f 9//62 11//62 27//62 
f 10//63 26//63 25//63 
f 10//64 9//64 26//64 
f 11//65 30//65 27//65 
f 11//66 14//66 30//66 
f 14//67 25//67 30//67 
f 14//68 10//68 25//68 
f 12//69 33//69 28//69 
f 12//70 17//70 33//70 
f 13//71 28//71 29//71 
f 13//72 12//72 28//72 
f 20//73 29//73 36//73 
f 20//74 13//74 29//74 
f 17//75 36//75 33//75 
f 17//76 20//76 36//76 
f 16//77 19//77 32//77 
f 32//78 19//78 35//78 
f 15//79 32//79 31//79 
f 15//80 16//80 32//80 
f 19//81 38//81 35//81 
f 19//82 22//82 38//82 
f 22//83 15//83 38//83 
f 38//84 15//84 31//84 
f 18//85 23//85 34//85 
f 34//86 23//86 39//86 
f 21//87 34//87 37//87 
f 21//88 18//88 34//88 
f 23//89 40//89 39//89 
f 23//90 24//90 40//90 
f 24//91 21//91 40//91 
f 40//92 21//92 37//92 
