# FreeCAD v0.19 build24291 (Git) Arch module
# http://www.freecadweb.org
mtllib cad-Cut007.mtl
o Cut007
usemtl color_ffffff
v 24.104988 -180.161087 0.0
v 23.215637 -188.083084 0.0
v 24.104988 -180.161087 2.5
v 23.215637 -188.083084 2.5
v 55.247272 -183.393967 0.0
v 55.247272 -183.393967 2.5
v 54.399265 -191.386246 0.0
v 54.399265 -191.386246 2.5
v 25.500042 -185.210632 0.0
v 25.726664 -185.440231 0.0
v 25.351753 -184.932037 0.0
v 26.036182 -185.603897 0.0
v 25.301935 -184.742554 0.0
v 25.286312 -184.557724 0.0
v 26.39167 -185.662567 0.0
v 26.5765 -185.647034 0.0
v 26.76601 -185.597305 0.0
v 27.044678 -185.449142 0.0
v 25.345018 -184.202148 0.0
v 25.50877 -183.892548 0.0
v 25.738499 -183.665909 0.0
v 26.017233 -183.51767 0.0
v 26.206795 -183.467911 0.0
v 26.39167 -183.452362 0.0
v 26.747252 -183.511078 0.0
v 27.056845 -183.67482 0.0
v 50.439201 -188.184647 0.0
v 27.274384 -185.222626 0.0
v 50.212559 -187.95491 0.0
v 50.064316 -187.676178 0.0
v 27.438187 -184.913193 0.0
v 50.014561 -187.486618 0.0
v 27.497028 -184.557724 0.0
v 49.999016 -187.301743 0.0
v 51.289249 -188.391556 0.0
v 51.104374 -188.407104 0.0
v 50.748795 -188.348389 0.0
v 50.057724 -186.946167 0.0
v 27.431728 -184.183289 0.0
v 27.481485 -184.372849 0.0
v 51.478809 -188.341797 0.0
v 51.757545 -188.193558 0.0
v 50.221474 -186.636566 0.0
v 27.283485 -183.904556 0.0
v 51.98727 -187.966919 0.0
v 50.451202 -186.409927 0.0
v 52.151024 -187.657318 0.0
v 52.209732 -187.301743 0.0
v 50.729939 -186.261688 0.0
v 50.919498 -186.211929 0.0
v 51.104374 -186.196381 0.0
v 51.459953 -186.255096 0.0
v 51.769547 -186.418839 0.0
v 51.996185 -186.648575 0.0
v 52.144428 -186.927307 0.0
v 52.194187 -187.116867 0.0
v 25.500042 -185.210632 2.5
v 25.726664 -185.440231 2.5
v 25.351753 -184.932037 2.5
v 26.036182 -185.603897 2.5
v 25.301935 -184.742554 2.5
v 25.286312 -184.557724 2.5
v 26.39167 -185.662567 2.5
v 26.5765 -185.647034 2.5
v 26.76601 -185.597305 2.5
v 27.044678 -185.449142 2.5
v 25.345018 -184.202148 2.5
v 25.50877 -183.892548 2.5
v 25.738499 -183.665909 2.5
v 26.017233 -183.51767 2.5
v 26.206795 -183.467911 2.5
v 26.39167 -183.452362 2.5
v 26.747252 -183.511078 2.5
v 27.056845 -183.67482 2.5
v 50.439201 -188.184647 2.5
v 50.212559 -187.95491 2.5
v 27.274384 -185.222626 2.5
v 50.064316 -187.676178 2.5
v 27.438187 -184.913193 2.5
v 50.014561 -187.486618 2.5
v 49.999016 -187.301743 2.5
v 27.497028 -184.557724 2.5
v 51.289249 -188.391556 2.5
v 51.104374 -188.407104 2.5
v 50.748795 -188.348389 2.5
v 50.057724 -186.946167 2.5
v 27.431728 -184.183289 2.5
v 27.481485 -184.372849 2.5
v 51.478809 -188.341797 2.5
v 51.757545 -188.193558 2.5
v 50.221474 -186.636566 2.5
v 27.283485 -183.904556 2.5
v 51.98727 -187.966919 2.5
v 50.451202 -186.409927 2.5
v 52.151024 -187.657318 2.5
v 52.209732 -187.301743 2.5
v 50.729939 -186.261688 2.5
v 50.919498 -186.211929 2.5
v 51.104374 -186.196381 2.5
v 51.459953 -186.255096 2.5
v 51.769547 -186.418839 2.5
v 51.996185 -186.648575 2.5
v 52.144428 -186.927307 2.5
v 52.194187 -187.116867 2.5
vn -0.993757426738739 0.11156266182661057 0.0
vn -0.993757426738739 0.11156266182661057 0.0
vn 0.10325509309768677 0.9946549534797668 -0.0
vn 0.10325509309768677 0.9946549534797668 0.0
vn -0.10533684492111206 -0.9944366216659546 0.0
vn -0.10533684492111206 -0.9944366216659546 0.0
vn 0.0 0.0 -1.0
vn 0.0 0.0 -1.0
vn 0.0 -0.0 -1.0
vn 0.0 0.0 -1.0
vn 0.0 0.0 -1.0
vn 0.0 -0.0 -1.0
vn 0.0 -0.0 -1.0
vn 0.0 -0.0 -1.0
vn 0.0 -0.0 -1.0
vn 0.0 0.0 -1.0
vn 0.0 0.0 -1.0
vn 0.0 0.0 -1.0
vn 0.0 0.0 -1.0
vn 0.0 0.0 -1.0
vn 0.0 0.0 -1.0
vn 0.0 0.0 -1.0
vn 0.0 0.0 -1.0
vn 0.0 0.0 -1.0
vn 0.0 -0.0 -1.0
vn 0.0 -0.0 -1.0
vn 0.0 0.0 -1.0
vn 0.0 0.0 -1.0
vn 0.0 -0.0 -1.0
vn 0.0 0.0 -1.0
vn 0.0 -0.0 -1.0
vn 0.0 0.0 -1.0
vn -0.0 -0.0 -1.0
vn 0.0 -0.0 -1.0
vn -0.0 -0.0 -1.0
vn -0.0 -0.0 -1.0
vn 0.0 0.0 -1.0
vn 0.0 0.0 -1.0
vn 0.0 0.0 -1.0
vn 0.0 0.0 -1.0
vn 0.0 0.0 -1.0
vn 0.0 0.0 -1.0
vn 0.0 0.0 -1.0
vn 0.0 0.0 -1.0
vn 0.0 0.0 -1.0
vn 0.0 0.0 -1.0
vn 0.0 0.0 -1.0
vn 0.0 0.0 -1.0
vn 0.0 0.0 -1.0
vn 0.0 0.0 -1.0
vn 0.0 0.0 -1.0
vn 0.0 0.0 -1.0
vn 0.0 0.0 -1.0
vn 0.0 0.0 -1.0
vn 0.0 0.0 -1.0
vn 0.0 0.0 -1.0
vn 0.0 0.0 -1.0
vn 0.0 0.0 -1.0
vn 0.0 0.0 -1.0
vn 0.0 0.0 -1.0
vn 0.0 0.0 1.0
vn 0.0 0.0 1.0
vn 0.0 0.0 1.0
vn 0.0 0.0 1.0
vn 0.0 0.0 1.0
vn 0.0 0.0 1.0
vn 0.0 0.0 1.0
vn 0.0 0.0 1.0
vn 0.0 0.0 1.0
vn 0.0 0.0 1.0
vn 0.0 0.0 1.0
vn 0.0 0.0 1.0
vn 0.0 0.0 1.0
vn 0.0 0.0 1.0
vn 0.0 0.0 1.0
vn 0.0 0.0 1.0
vn 0.0 0.0 1.0
vn 0.0 0.0 1.0
vn 0.0 0.0 1.0
vn 0.0 0.0 1.0
vn 0.0 0.0 1.0
vn 0.0 0.0 1.0
vn 0.0 0.0 1.0
vn 0.0 0.0 1.0
vn 0.0 0.0 1.0
vn 0.0 0.0 1.0
vn 0.0 0.0 1.0
vn 0.0 0.0 1.0
vn 0.0 0.0 1.0
vn 0.0 0.0 1.0
vn 0.0 0.0 1.0
vn 0.0 0.0 1.0
vn 0.0 0.0 1.0
vn 0.0 0.0 1.0
vn 0.0 0.0 1.0
vn 0.0 0.0 1.0
vn 0.0 0.0 1.0
vn 0.0 0.0 1.0
vn 0.0 0.0 1.0
vn 0.0 0.0 1.0
vn 0.0 0.0 1.0
vn 0.0 0.0 1.0
vn 0.0 0.0 1.0
vn 0.0 0.0 1.0
vn 0.0 0.0 1.0
vn 0.0 0.0 1.0
vn 0.0 0.0 1.0
vn 0.0 0.0 1.0
vn 0.0 0.0 1.0
vn 0.0 0.0 1.0
vn 0.0 0.0 1.0
vn 0.0 0.0 1.0
vn 0.0 0.0 1.0
vn 0.0 0.0 1.0
vn 0.9944181442260742 -0.10551104694604874 0.0
vn 0.9944181442260742 -0.10551104694604874 0.0
vn 0.9866422414779663 -0.16290202736854553 0.0
vn 0.9866422414779663 -0.16290202736854553 0.0
vn 0.8839727640151978 -0.46753838658332825 0.0
vn 0.8839727640151978 -0.46753838658332825 0.0
vn 0.7023031115531921 -0.7118780612945557 0.0
vn 0.7023031115531921 -0.7118780612945557 0.0
vn 0.46955186128616333 -0.8829048871994019 0.0
vn 0.46955186128616333 -0.8829048871994019 0.0
vn 0.2538954019546509 -0.9672316908836365 0.0
vn 0.2538954019546509 -0.9672316908836365 0.0
vn 0.08380778133869171 -0.9964819550514221 0.0
vn 0.08380778133869171 -0.9964819550514221 0.0
vn 0.16292093694210052 0.9866390824317932 -0.0
vn 0.16292093694210052 0.9866390824317932 0.0
vn 0.46753036975860596 0.8839769959449768 0.0
vn 0.46753036975860596 0.8839769959449768 -0.0
vn 0.7118837833404541 0.7022973299026489 0.0
vn 0.7118837833404541 0.7022973299026489 -0.0
vn 0.8828971982002258 0.469566285610199 0.0
vn 0.8828971982002258 0.469566285610199 -0.0
vn 0.9672364592552185 0.253877192735672 0.0
vn 0.9672364592552185 0.253877192735672 -0.0
vn 0.9964836239814758 0.08378736674785614 0.0
vn 0.9964836239814758 0.08378736674785614 -0.0
vn -0.9866422414779663 0.16290202736854553 0.0
vn -0.9866422414779663 0.16290202736854553 0.0
vn -0.8839682936668396 0.46754691004753113 0.0
vn -0.8839682936668396 0.46754691004753113 0.0
vn -0.7023090124130249 0.7118722200393677 0.0
vn -0.7023090124130249 0.7118722200393677 0.0
vn -0.46955186128616333 0.8829048871994019 0.0
vn -0.46955186128616333 0.8829048871994019 0.0
vn -0.2538954019546509 0.9672316908836365 0.0
vn -0.2538954019546509 0.9672316908836365 0.0
vn -0.08380778133869171 0.9964819550514221 0.0
vn -0.08380778133869171 0.9964819550514221 0.0
vn -0.16292093694210052 -0.9866390824317932 0.0
vn -0.16292093694210052 -0.9866390824317932 0.0
vn -0.46753036975860596 -0.8839769959449768 0.0
vn -0.46753036975860596 -0.8839769959449768 0.0
vn -0.7118896842002869 -0.7022913098335266 0.0
vn -0.7118896842002869 -0.7022913098335266 0.0
vn -0.8828971982002258 -0.469566285610199 0.0
vn -0.8828971982002258 -0.469566285610199 0.0
vn -0.9672316908836365 -0.2538954019546509 0.0
vn -0.9672316908836365 -0.2538954019546509 0.0
vn -0.9964836239814758 -0.08378736674785614 0.0
vn -0.9964836239814758 -0.08378736674785614 0.0
vn 0.9866430759429932 -0.16289687156677246 0.0
vn 0.9866430759429932 -0.16289687156677246 0.0
vn 0.8839705586433411 -0.4675426483154297 0.0
vn 0.8839705586433411 -0.4675426483154297 0.0
vn 0.7023031115531921 -0.7118780612945557 0.0
vn 0.7023031115531921 -0.7118780612945557 0.0
vn 0.4695543646812439 -0.8829035758972168 0.0
vn 0.4695543646812439 -0.8829035758972168 0.0
vn 0.25389301776885986 -0.9672322869300842 0.0
vn 0.25389301776885986 -0.9672322869300842 0.0
vn 0.08380778133869171 -0.9964819550514221 0.0
vn 0.08380778133869171 -0.9964819550514221 0.0
vn 0.16283810138702393 0.9866527915000916 -0.0
vn 0.16283810138702393 0.9866527915000916 0.0
vn 0.4674478769302368 0.8840206265449524 0.0
vn 0.4674478769302368 0.8840206265449524 -0.0
vn 0.711706280708313 0.7024770975112915 0.0
vn 0.711706280708313 0.7024770975112915 -0.0
vn 0.8827410936355591 0.4698597192764282 0.0
vn 0.8827410936355591 0.4698597192764282 -0.0
vn 0.9671324491500854 0.25427335500717163 0.0
vn 0.9671324491500854 0.25427335500717163 -0.0
vn 0.9964466691017151 0.08422660082578659 0.0
vn 0.9964466691017151 0.08422660082578659 -0.0
vn -0.16292008757591248 -0.9866393208503723 0.0
vn -0.16292008757591248 -0.9866393208503723 0.0
vn -0.46753036975860596 -0.8839769959449768 0.0
vn -0.46753036975860596 -0.8839769959449768 0.0
vn -0.7118867635726929 -0.7022942900657654 0.0
vn -0.7118867635726929 -0.7022942900657654 0.0
vn -0.8828971982002258 -0.469566285610199 0.0
vn -0.8828971982002258 -0.469566285610199 0.0
vn -0.9672340750694275 -0.25388628244400024 0.0
vn -0.9672340750694275 -0.25388628244400024 0.0
vn -0.9964845180511475 -0.08377715945243835 0.0
vn -0.9964845180511475 -0.08377715945243835 0.0
vn -0.9865747094154358 0.16331039369106293 0.0
vn -0.9865747094154358 0.16331039369106293 0.0
vn -0.8838049173355103 0.46785569190979004 0.0
vn -0.8838049173355103 0.46785569190979004 0.0
vn -0.7021468281745911 0.7120321989059448 0.0
vn -0.7021468281745911 0.7120321989059448 0.0
vn -0.4694536030292511 0.8829571008682251 0.0
vn -0.4694536030292511 0.8829571008682251 0.0
vn -0.2538118362426758 0.967253565788269 0.0
vn -0.2538118362426758 0.967253565788269 0.0
vn -0.08374670147895813 0.9964870810508728 0.0
vn -0.08374670147895813 0.9964870810508728 0.0
f 1//1 2//1 3//1 
f 3//2 2//2 4//2 
f 5//3 1//3 6//3 
f 6//4 1//4 3//4 
f 2//5 7//5 4//5 
f 4//6 7//6 8//6 
f 2//7 9//7 10//7 
f 2//8 11//8 9//8 
f 10//9 12//9 2//9 
f 2//10 13//10 11//10 
f 2//11 14//11 13//11 
f 12//12 15//12 2//12 
f 15//13 16//13 2//13 
f 16//14 17//14 2//14 
f 17//15 18//15 2//15 
f 14//16 1//16 19//16 
f 19//17 1//17 20//17 
f 20//18 1//18 21//18 
f 21//19 1//19 22//19 
f 22//20 1//20 23//20 
f 23//21 1//21 24//21 
f 24//22 1//22 25//22 
f 25//23 1//23 26//23 
f 2//24 1//24 14//24 
f 18//25 27//25 2//25 
f 28//26 29//26 18//26 
f 18//27 29//27 27//27 
f 28//28 30//28 29//28 
f 31//29 30//29 28//29 
f 31//30 32//30 30//30 
f 33//31 34//31 31//31 
f 31//32 34//32 32//32 
f 27//33 7//33 2//33 
f 35//34 7//34 36//34 
f 36//35 7//35 37//35 
f 37//36 7//36 27//36 
f 33//37 38//37 34//37 
f 39//38 38//38 40//38 
f 40//39 38//39 33//39 
f 35//40 41//40 7//40 
f 41//41 42//41 7//41 
f 39//42 43//42 38//42 
f 44//43 43//43 39//43 
f 42//44 45//44 7//44 
f 44//45 46//45 43//45 
f 26//46 46//46 44//46 
f 1//47 46//47 26//47 
f 45//48 47//48 7//48 
f 47//49 48//49 7//49 
f 49//50 5//50 50//50 
f 50//51 5//51 51//51 
f 51//52 5//52 52//52 
f 52//53 5//53 53//53 
f 53//54 5//54 54//54 
f 54//55 5//55 55//55 
f 55//56 5//56 56//56 
f 56//57 5//57 48//57 
f 48//58 5//58 7//58 
f 1//59 5//59 49//59 
f 1//60 49//60 46//60 
f 57//61 4//61 58//61 
f 59//62 4//62 57//62 
f 60//63 58//63 4//63 
f 61//64 4//64 59//64 
f 62//65 4//65 61//65 
f 63//66 60//66 4//66 
f 64//67 63//67 4//67 
f 65//68 64//68 4//68 
f 66//69 65//69 4//69 
f 3//70 62//70 67//70 
f 3//71 67//71 68//71 
f 3//72 68//72 69//72 
f 3//73 69//73 70//73 
f 3//74 70//74 71//74 
f 3//75 71//75 72//75 
f 3//76 72//76 73//76 
f 3//77 73//77 74//77 
f 3//78 4//78 62//78 
f 75//79 66//79 4//79 
f 76//80 77//80 66//80 
f 76//81 66//81 75//81 
f 78//82 77//82 76//82 
f 78//83 79//83 77//83 
f 80//84 79//84 78//84 
f 81//85 82//85 79//85 
f 81//86 79//86 80//86 
f 8//87 75//87 4//87 
f 8//88 83//88 84//88 
f 8//89 84//89 85//89 
f 8//90 85//90 75//90 
f 86//91 82//91 81//91 
f 86//92 87//92 88//92 
f 86//93 88//93 82//93 
f 89//94 83//94 8//94 
f 90//95 89//95 8//95 
f 91//96 87//96 86//96 
f 91//97 92//97 87//97 
f 93//98 90//98 8//98 
f 94//99 92//99 91//99 
f 94//100 74//100 92//100 
f 94//101 3//101 74//101 
f 95//102 93//102 8//102 
f 96//103 95//103 8//103 
f 6//104 97//104 98//104 
f 6//105 98//105 99//105 
f 6//106 99//106 100//106 
f 6//107 100//107 101//107 
f 6//108 101//108 102//108 
f 6//109 102//109 103//109 
f 6//110 103//110 104//110 
f 6//111 104//111 96//111 
f 6//112 96//112 8//112 
f 6//113 3//113 97//113 
f 97//114 3//114 94//114 
f 7//115 5//115 8//115 
f 8//116 5//116 6//116 
f 34//117 38//117 81//117 
f 81//118 38//118 86//118 
f 86//119 43//119 91//119 
f 38//120 43//120 86//120 
f 91//121 46//121 94//121 
f 43//122 46//122 91//122 
f 94//123 49//123 97//123 
f 46//124 49//124 94//124 
f 97//125 50//125 98//125 
f 49//126 50//126 97//126 
f 98//127 51//127 99//127 
f 50//128 51//128 98//128 
f 36//129 37//129 84//129 
f 84//130 37//130 85//130 
f 85//131 27//131 75//131 
f 37//132 27//132 85//132 
f 75//133 29//133 76//133 
f 27//134 29//134 75//134 
f 76//135 30//135 78//135 
f 29//136 30//136 76//136 
f 78//137 32//137 80//137 
f 30//138 32//138 78//138 
f 80//139 34//139 81//139 
f 32//140 34//140 80//140 
f 48//141 47//141 96//141 
f 96//142 47//142 95//142 
f 95//143 45//143 93//143 
f 47//144 45//144 95//144 
f 93//145 42//145 90//145 
f 45//146 42//146 93//146 
f 90//147 41//147 89//147 
f 42//148 41//148 90//148 
f 89//149 35//149 83//149 
f 41//150 35//150 89//150 
f 83//151 36//151 84//151 
f 35//152 36//152 83//152 
f 51//153 52//153 99//153 
f 99//154 52//154 100//154 
f 100//155 53//155 101//155 
f 52//156 53//156 100//156 
f 101//157 54//157 102//157 
f 53//158 54//158 101//158 
f 102//159 55//159 103//159 
f 54//160 55//160 102//160 
f 103//161 56//161 104//161 
f 55//162 56//162 103//162 
f 104//163 48//163 96//163 
f 56//164 48//164 104//164 
f 14//165 19//165 62//165 
f 62//166 19//166 67//166 
f 67//167 20//167 68//167 
f 19//168 20//168 67//168 
f 68//169 21//169 69//169 
f 20//170 21//170 68//170 
f 69//171 22//171 70//171 
f 21//172 22//172 69//172 
f 70//173 23//173 71//173 
f 22//174 23//174 70//174 
f 71//175 24//175 72//175 
f 23//176 24//176 71//176 
f 15//177 12//177 63//177 
f 63//178 12//178 60//178 
f 60//179 10//179 58//179 
f 12//180 10//180 60//180 
f 58//181 9//181 57//181 
f 10//182 9//182 58//182 
f 57//183 11//183 59//183 
f 9//184 11//184 57//184 
f 59//185 13//185 61//185 
f 11//186 13//186 59//186 
f 61//187 14//187 62//187 
f 13//188 14//188 61//188 
f 24//189 25//189 72//189 
f 72//190 25//190 73//190 
f 73//191 26//191 74//191 
f 25//192 26//192 73//192 
f 74//193 44//193 92//193 
f 26//194 44//194 74//194 
f 92//195 39//195 87//195 
f 44//196 39//196 92//196 
f 87//197 40//197 88//197 
f 39//198 40//198 87//198 
f 88//199 33//199 82//199 
f 40//200 33//200 88//200 
f 33//201 31//201 82//201 
f 82//202 31//202 79//202 
f 79//203 28//203 77//203 
f 31//204 28//204 79//204 
f 77//205 18//205 66//205 
f 28//206 18//206 77//206 
f 66//207 17//207 65//207 
f 18//208 17//208 66//208 
f 65//209 16//209 64//209 
f 17//210 16//210 65//210 
f 64//211 15//211 63//211 
f 16//212 15//212 64//212 
