# FreeCAD v0.19 build24291 (Git) Arch module
# http://www.freecadweb.org
mtllib cad-Extrude015.mtl
o Extrude015
usemtl color_ffffff
v 104.005539 -204.614487 0.0
v 104.005539 -339.614502 2.5
v 104.005539 -204.614487 2.5
v 104.005539 -339.614502 0.0
v 112.505791 -339.614502 0.0
v 112.505791 -339.614502 2.5
v 112.505791 -212.614517 0.0
v 112.505791 -212.614517 2.5
v 203.505402 -212.614517 0.0
v 203.505402 -212.614517 2.5
v 203.505402 -339.614502 0.0
v 203.505402 -339.614502 2.5
v 212.005661 -339.614502 0.0
v 212.005661 -339.614502 2.5
v 212.005661 -204.614487 0.0
v 212.005661 -204.614487 2.5
vn -1.0 0.0 0.0
vn -1.0 0.0 0.0
vn 0.0 -1.0 0.0
vn 0.0 -1.0 0.0
vn 1.0 0.0 0.0
vn 1.0 -0.0 0.0
vn 0.0 -1.0 0.0
vn 0.0 -1.0 0.0
vn -1.0 0.0 0.0
vn -1.0 -0.0 0.0
vn 0.0 -1.0 0.0
vn 0.0 -1.0 0.0
vn 1.0 0.0 0.0
vn 1.0 -0.0 0.0
vn 0.0 1.0 -0.0
vn 0.0 1.0 0.0
vn 0.0 0.0 -1.0
vn 0.0 0.0 -1.0
vn 0.0 0.0 -1.0
vn 0.0 0.0 -1.0
vn 0.0 0.0 -1.0
vn 0.0 0.0 -1.0
vn 0.0 0.0 1.0
vn 0.0 0.0 1.0
vn 0.0 0.0 1.0
vn 0.0 0.0 1.0
vn 0.0 0.0 1.0
vn 0.0 0.0 1.0
f 1//1 2//1 3//1 
f 1//2 4//2 2//2 
f 4//3 5//3 2//3 
f 2//4 5//4 6//4 
f 5//5 7//5 6//5 
f 6//6 7//6 8//6 
f 7//7 9//7 8//7 
f 8//8 9//8 10//8 
f 9//9 11//9 10//9 
f 10//10 11//10 12//10 
f 11//11 13//11 12//11 
f 12//12 13//12 14//12 
f 13//13 15//13 14//13 
f 14//14 15//14 16//14 
f 15//15 1//15 16//15 
f 16//16 1//16 3//16 
f 1//17 7//17 4//17 
f 4//18 7//18 5//18 
f 11//19 9//19 13//19 
f 1//20 9//20 7//20 
f 9//21 15//21 13//21 
f 1//22 15//22 9//22 
f 8//23 3//23 2//23 
f 8//24 2//24 6//24 
f 10//25 12//25 14//25 
f 10//26 3//26 8//26 
f 16//27 10//27 14//27 
f 16//28 3//28 10//28 
