# FreeCAD v0.19 build24291 (Git) Arch module
# http://www.freecadweb.org
mtllib cad-Cut005.mtl
o Cut005
usemtl color_ffffff
v 12.790434 -227.33754 0.0
v 12.790434 -236.337509 0.0
v 12.790434 -227.33754 2.5
v 12.790434 -236.337509 2.5
v 22.79034 -227.33754 0.0
v 22.79034 -227.33754 2.5
v 22.79034 -236.337509 0.0
v 22.79034 -236.337509 2.5
v 18.982634 -232.723816 0.0
v 19.290092 -233.035568 0.0
v 18.781523 -232.345596 0.0
v 19.710106 -233.257874 0.0
v 18.714014 -232.088394 0.0
v 20.192566 -233.337692 0.0
v 18.692915 -231.837524 0.0
v 20.443474 -233.316589 0.0
v 18.772575 -231.355042 0.0
v 20.700737 -233.249054 0.0
v 21.07902 -233.047852 0.0
v 18.994728 -230.934952 0.0
v 21.390797 -232.740265 0.0
v 19.306376 -230.62738 0.0
v 19.684523 -230.426147 0.0
v 21.613041 -232.320099 0.0
v 21.692732 -231.837524 0.0
v 19.941711 -230.358551 0.0
v 20.192566 -230.337357 0.0
v 20.675144 -230.417053 0.0
v 21.095308 -230.639297 0.0
v 21.402895 -230.951065 0.0
v 21.60409 -231.329361 0.0
v 21.671627 -231.586624 0.0
v 18.982634 -232.723816 2.5
v 19.290092 -233.035568 2.5
v 18.781523 -232.345596 2.5
v 19.710106 -233.257874 2.5
v 18.714014 -232.088394 2.5
v 20.192566 -233.337692 2.5
v 18.692915 -231.837524 2.5
v 20.443474 -233.316589 2.5
v 18.772575 -231.355042 2.5
v 20.700737 -233.249054 2.5
v 21.07902 -233.047852 2.5
v 18.994728 -230.934952 2.5
v 21.390797 -232.740265 2.5
v 19.306376 -230.62738 2.5
v 19.684523 -230.426147 2.5
v 21.613041 -232.320099 2.5
v 21.692732 -231.837524 2.5
v 19.941711 -230.358551 2.5
v 20.192566 -230.337357 2.5
v 20.675144 -230.417053 2.5
v 21.095308 -230.639297 2.5
v 21.402895 -230.951065 2.5
v 21.60409 -231.329361 2.5
v 21.671627 -231.586624 2.5
vn -1.0 0.0 0.0
vn -1.0 -0.0 0.0
vn 0.0 1.0 -0.0
vn 0.0 1.0 0.0
vn 0.0 -1.0 0.0
vn 0.0 -1.0 0.0
vn 0.0 0.0 -1.0
vn 0.0 0.0 -1.0
vn 0.0 -0.0 -1.0
vn 0.0 -0.0 -1.0
vn 0.0 0.0 -1.0
vn 0.0 0.0 -1.0
vn 0.0 0.0 -1.0
vn 0.0 0.0 -1.0
vn 0.0 0.0 -1.0
vn 0.0 0.0 -1.0
vn 0.0 0.0 -1.0
vn 0.0 0.0 -1.0
vn 0.0 0.0 -1.0
vn 0.0 0.0 -1.0
vn 0.0 0.0 -1.0
vn 0.0 0.0 -1.0
vn 0.0 0.0 -1.0
vn 0.0 0.0 -1.0
vn 0.0 0.0 -1.0
vn 0.0 0.0 -1.0
vn 0.0 0.0 -1.0
vn 0.0 0.0 -1.0
vn 0.0 0.0 -1.0
vn 0.0 0.0 -1.0
vn 0.0 0.0 -1.0
vn 0.0 0.0 -1.0
vn 0.0 0.0 -1.0
vn 0.0 0.0 -1.0
vn 0.0 0.0 1.0
vn 0.0 0.0 1.0
vn 0.0 0.0 1.0
vn 0.0 0.0 1.0
vn 0.0 0.0 1.0
vn 0.0 0.0 1.0
vn 0.0 0.0 1.0
vn 0.0 0.0 1.0
vn 0.0 0.0 1.0
vn 0.0 0.0 1.0
vn 0.0 0.0 1.0
vn 0.0 0.0 1.0
vn 0.0 0.0 1.0
vn 0.0 0.0 1.0
vn 0.0 0.0 1.0
vn 0.0 0.0 1.0
vn 0.0 0.0 1.0
vn 0.0 0.0 1.0
vn 0.0 0.0 1.0
vn 0.0 0.0 1.0
vn 0.0 0.0 1.0
vn 0.0 0.0 1.0
vn 0.0 0.0 1.0
vn 0.0 0.0 1.0
vn 0.0 0.0 1.0
vn 0.0 0.0 1.0
vn 0.0 0.0 1.0
vn 0.0 0.0 1.0
vn 1.0 0.0 0.0
vn 1.0 -0.0 0.0
vn 0.986642599105835 -0.16289977729320526 0.0
vn 0.986642599105835 -0.16289977729320526 0.0
vn 0.8840033411979675 -0.46748048067092896 0.0
vn 0.8840033411979675 -0.46748048067092896 0.0
vn 0.7024370431900024 -0.7117459177970886 0.0
vn 0.7024370431900024 -0.7117459177970886 0.0
vn 0.4697782099246979 -0.8827844262123108 0.0
vn 0.4697782099246979 -0.8827844262123108 0.0
vn 0.2541949450969696 -0.9671529531478882 0.0
vn 0.2541949450969696 -0.9671529531478882 0.0
vn 0.08418909460306168 -0.9964497685432434 0.0
vn 0.08418909460306168 -0.9964497685432434 0.0
vn 0.16322243213653564 0.986589252948761 -0.0
vn 0.16322243213653564 0.986589252948761 0.0
vn 0.46779772639274597 0.8838355541229248 0.0
vn 0.46779772639274597 0.8838355541229248 -0.0
vn 0.7119925618171692 0.7021870017051697 0.0
vn 0.7119925618171692 0.7021870017051697 -0.0
vn 0.8829399943351746 0.46948596835136414 0.0
vn 0.8829399943351746 0.46948596835136414 -0.0
vn 0.9672373533248901 0.2538739740848541 0.0
vn 0.9672373533248901 0.2538739740848541 -0.0
vn 0.9964818954467773 0.08380787819623947 0.0
vn 0.9964818954467773 0.08380787819623947 -0.0
vn -0.986637532711029 0.162930428981781 0.0
vn -0.986637532711029 0.162930428981781 0.0
vn -0.8839588165283203 0.4675646722316742 0.0
vn -0.8839588165283203 0.4675646722316742 0.0
vn -0.7023066282272339 0.7118746042251587 0.0
vn -0.7023066282272339 0.7118746042251587 0.0
vn -0.4695916473865509 0.8828837871551514 0.0
vn -0.4695916473865509 0.8828837871551514 0.0
vn -0.253911554813385 0.9672274589538574 0.0
vn -0.253911554813385 0.9672274589538574 0.0
vn -0.08381027728319168 0.9964817762374878 0.0
vn -0.08381027728319168 0.9964817762374878 0.0
vn -0.16294057667255402 -0.9866359233856201 0.0
vn -0.16294057667255402 -0.9866359233856201 0.0
vn -0.4675663411617279 -0.8839580416679382 0.0
vn -0.4675663411617279 -0.8839580416679382 0.0
vn -0.7118638157844543 -0.702317476272583 0.0
vn -0.7118638157844543 -0.702317476272583 0.0
vn -0.8828980326652527 -0.46956485509872437 0.0
vn -0.8828980326652527 -0.46956485509872437 0.0
vn -0.9672257304191589 -0.25391826033592224 0.0
vn -0.9672257304191589 -0.25391826033592224 0.0
vn -0.9964808821678162 -0.08382032811641693 0.0
vn -0.9964808821678162 -0.08382032811641693 0.0
f 1//1 2//1 3//1 
f 3//2 2//2 4//2 
f 5//3 1//3 6//3 
f 6//4 1//4 3//4 
f 2//5 7//5 4//5 
f 4//6 7//6 8//6 
f 2//7 9//7 10//7 
f 2//8 11//8 9//8 
f 10//9 12//9 2//9 
f 12//10 7//10 2//10 
f 2//11 13//11 11//11 
f 12//12 14//12 7//12 
f 1//13 15//13 2//13 
f 2//14 15//14 13//14 
f 14//15 16//15 7//15 
f 1//16 17//16 15//16 
f 16//17 18//17 7//17 
f 18//18 19//18 7//18 
f 1//19 20//19 17//19 
f 19//20 21//20 7//20 
f 1//21 22//21 20//21 
f 1//22 23//22 22//22 
f 21//23 24//23 7//23 
f 24//24 25//24 7//24 
f 23//25 5//25 26//25 
f 26//26 5//26 27//26 
f 27//27 5//27 28//27 
f 28//28 5//28 29//28 
f 29//29 5//29 30//29 
f 30//30 5//30 31//30 
f 31//31 5//31 32//31 
f 32//32 5//32 25//32 
f 1//33 5//33 23//33 
f 25//34 5//34 7//34 
f 33//35 4//35 34//35 
f 35//36 4//36 33//36 
f 36//37 34//37 4//37 
f 8//38 36//38 4//38 
f 37//39 4//39 35//39 
f 38//40 36//40 8//40 
f 39//41 3//41 4//41 
f 39//42 4//42 37//42 
f 40//43 38//43 8//43 
f 41//44 3//44 39//44 
f 42//45 40//45 8//45 
f 43//46 42//46 8//46 
f 44//47 3//47 41//47 
f 45//48 43//48 8//48 
f 46//49 3//49 44//49 
f 47//50 3//50 46//50 
f 48//51 45//51 8//51 
f 49//52 48//52 8//52 
f 6//53 47//53 50//53 
f 6//54 50//54 51//54 
f 6//55 51//55 52//55 
f 6//56 52//56 53//56 
f 6//57 53//57 54//57 
f 6//58 54//58 55//58 
f 6//59 55//59 56//59 
f 6//60 56//60 49//60 
f 6//61 3//61 47//61 
f 6//62 49//62 8//62 
f 7//63 5//63 8//63 
f 8//64 5//64 6//64 
f 15//65 17//65 39//65 
f 39//66 17//66 41//66 
f 41//67 20//67 44//67 
f 17//68 20//68 41//68 
f 44//69 22//69 46//69 
f 20//70 22//70 44//70 
f 46//71 23//71 47//71 
f 22//72 23//72 46//72 
f 47//73 26//73 50//73 
f 23//74 26//74 47//74 
f 50//75 27//75 51//75 
f 26//76 27//76 50//76 
f 14//77 12//77 38//77 
f 38//78 12//78 36//78 
f 36//79 10//79 34//79 
f 12//80 10//80 36//80 
f 34//81 9//81 33//81 
f 10//82 9//82 34//82 
f 33//83 11//83 35//83 
f 9//84 11//84 33//84 
f 35//85 13//85 37//85 
f 11//86 13//86 35//86 
f 37//87 15//87 39//87 
f 13//88 15//88 37//88 
f 25//89 24//89 49//89 
f 49//90 24//90 48//90 
f 48//91 21//91 45//91 
f 24//92 21//92 48//92 
f 45//93 19//93 43//93 
f 21//94 19//94 45//94 
f 43//95 18//95 42//95 
f 19//96 18//96 43//96 
f 42//97 16//97 40//97 
f 18//98 16//98 42//98 
f 40//99 14//99 38//99 
f 16//100 14//100 40//100 
f 27//101 28//101 51//101 
f 51//102 28//102 52//102 
f 52//103 29//103 53//103 
f 28//104 29//104 52//104 
f 53//105 30//105 54//105 
f 29//106 30//106 53//106 
f 54//107 31//107 55//107 
f 30//108 31//108 54//108 
f 55//109 32//109 56//109 
f 31//110 32//110 55//110 
f 56//111 25//111 49//111 
f 32//112 25//112 56//112 
