# FreeCAD v0.19 build24291 (Git) Arch module
# http://www.freecadweb.org
mtllib cad-Cut015.mtl
o Cut015
usemtl color_ffffff
v 29.282967 -13.509769 0.0
v 26.790096 -23.712248 0.0
v 29.282967 -13.509769 2.5
v 26.790096 -23.712248 2.5
v 73.244621 -23.927221 0.0
v 73.244621 -23.927221 2.5
v 70.843735 -33.988106 0.0
v 70.843735 -33.988106 2.5
v 62.227104 -27.346064 0.0
v 62.430847 -27.552473 0.0
v 62.093792 -27.095598 0.0
v 62.049011 -26.925245 0.0
v 62.034973 -26.75909 0.0
v 62.087723 -26.439407 0.0
v 62.234936 -26.161062 0.0
v 62.441471 -25.957298 0.0
v 63.821907 -27.356682 0.0
v 63.61552 -27.560297 0.0
v 63.36512 -27.693525 0.0
v 63.19482 -27.738279 0.0
v 63.028709 -27.75231 0.0
v 62.709122 -27.699589 0.0
v 62.692074 -25.824032 0.0
v 62.862499 -25.77931 0.0
v 72.506821 -29.985088 0.0
v 73.226372 -32.826557 0.0
v 72.303185 -29.778574 0.0
v 72.170006 -29.528038 0.0
v 72.785019 -30.132351 0.0
v 72.125313 -29.357664 0.0
v 73.104584 -30.185238 0.0
v 72.111359 -29.1915 0.0
v 63.969074 -27.078562 0.0
v 73.27079 -30.17128 0.0
v 72.164215 -28.872028 0.0
v 64.021935 -26.75909 0.0
v 74.917366 -31.436808 0.0
v 73.441216 -30.126558 0.0
v 73.691818 -29.993292 0.0
v 72.311386 -28.593906 0.0
v 64.00798 -26.592926 0.0
v 73.898354 -29.789528 0.0
v 75.376518 -30.807968 0.0
v 74.045563 -29.511183 0.0
v 75.685822 -30.117023 0.0
v 74.039497 -28.854992 0.0
v 75.795753 -29.180403 0.0
v 74.084282 -29.025343 0.0
v 74.09832 -29.1915 0.0
v 73.424171 -28.250999 0.0
v 75.436554 -27.568468 0.0
v 73.702446 -28.398115 0.0
v 73.906189 -28.604525 0.0
v 74.485344 -25.670841 0.0
v 72.768166 -28.257063 0.0
v 72.938469 -28.212307 0.0
v 73.104584 -28.198278 0.0
v 72.517769 -28.390291 0.0
v 63.028709 -25.765352 0.0
v 63.348274 -25.818239 0.0
v 63.626469 -25.9655 0.0
v 63.830105 -26.172016 0.0
v 63.963287 -26.422552 0.0
v 62.227104 -27.346064 2.5
v 62.430847 -27.552473 2.5
v 62.093792 -27.095598 2.5
v 62.049011 -26.925245 2.5
v 62.034973 -26.75909 2.5
v 62.087723 -26.439407 2.5
v 62.234936 -26.161062 2.5
v 62.441471 -25.957298 2.5
v 63.821907 -27.356682 2.5
v 63.61552 -27.560297 2.5
v 63.36512 -27.693525 2.5
v 63.19482 -27.738279 2.5
v 63.028709 -27.75231 2.5
v 62.709122 -27.699589 2.5
v 62.692074 -25.824032 2.5
v 62.862499 -25.77931 2.5
v 72.506821 -29.985088 2.5
v 73.226372 -32.826557 2.5
v 72.303185 -29.778574 2.5
v 72.170006 -29.528038 2.5
v 72.785019 -30.132351 2.5
v 72.125313 -29.357664 2.5
v 73.104584 -30.185238 2.5
v 72.111359 -29.1915 2.5
v 63.969074 -27.078562 2.5
v 73.27079 -30.17128 2.5
v 72.164215 -28.872028 2.5
v 64.021935 -26.75909 2.5
v 74.917366 -31.436808 2.5
v 73.441216 -30.126558 2.5
v 73.691818 -29.993292 2.5
v 72.311386 -28.593906 2.5
v 64.00798 -26.592926 2.5
v 75.376518 -30.807968 2.5
v 73.898354 -29.789528 2.5
v 75.685822 -30.117023 2.5
v 74.045563 -29.511183 2.5
v 75.795753 -29.180403 2.5
v 74.039497 -28.854992 2.5
v 74.084282 -29.025343 2.5
v 74.09832 -29.1915 2.5
v 75.436554 -27.568468 2.5
v 73.424171 -28.250999 2.5
v 73.702446 -28.398115 2.5
v 73.906189 -28.604525 2.5
v 74.485344 -25.670841 2.5
v 72.768166 -28.257063 2.5
v 72.938469 -28.212307 2.5
v 73.104584 -28.198278 2.5
v 72.517769 -28.390291 2.5
v 63.028709 -25.765352 2.5
v 63.348274 -25.818239 2.5
v 63.626469 -25.9655 2.5
v 63.830105 -26.172016 2.5
v 63.963287 -26.422552 2.5
vn -0.9714224934577942 0.23735706508159637 0.0
vn -0.9714224934577942 0.23735706508159637 0.0
vn 0.23058125376701355 0.9730530977249146 -0.0
vn 0.23058125376701355 0.9730530977249146 0.0
vn -0.22715991735458374 -0.9738574624061584 0.0
vn -0.22715991735458374 -0.9738574624061584 0.0
vn 0.0 0.0 -1.0
vn 0.0 0.0 -1.0
vn 0.0 0.0 -1.0
vn 0.0 0.0 -1.0
vn 0.0 -0.0 -1.0
vn 0.0 0.0 -1.0
vn 0.0 0.0 -1.0
vn 0.0 0.0 -1.0
vn 0.0 -0.0 -1.0
vn 0.0 -0.0 -1.0
vn 0.0 -0.0 -1.0
vn 0.0 -0.0 -1.0
vn -0.0 -0.0 -1.0
vn -0.0 -0.0 -1.0
vn -0.0 -0.0 -1.0
vn 0.0 0.0 -1.0
vn 0.0 0.0 -1.0
vn 0.0 0.0 -1.0
vn 0.0 0.0 -1.0
vn 0.0 0.0 -1.0
vn 0.0 0.0 -1.0
vn 0.0 0.0 -1.0
vn 0.0 0.0 -1.0
vn 0.0 0.0 -1.0
vn 0.0 0.0 -1.0
vn 0.0 -0.0 -1.0
vn 0.0 0.0 -1.0
vn 0.0 0.0 -1.0
vn 0.0 -0.0 -1.0
vn 0.0 -0.0 -1.0
vn 0.0 -0.0 -1.0
vn 0.0 0.0 -1.0
vn 0.0 0.0 -1.0
vn 0.0 0.0 -1.0
vn 0.0 -0.0 -1.0
vn 0.0 0.0 -1.0
vn 0.0 -0.0 -1.0
vn 0.0 0.0 -1.0
vn 0.0 0.0 -1.0
vn 0.0 0.0 -1.0
vn 0.0 -0.0 -1.0
vn 0.0 0.0 -1.0
vn 0.0 0.0 -1.0
vn 0.0 0.0 -1.0
vn 0.0 0.0 -1.0
vn 0.0 0.0 -1.0
vn 0.0 0.0 -1.0
vn 0.0 0.0 -1.0
vn 0.0 0.0 -1.0
vn 0.0 0.0 -1.0
vn 0.0 0.0 -1.0
vn 0.0 0.0 -1.0
vn 0.0 0.0 -1.0
vn 0.0 0.0 -1.0
vn 0.0 0.0 -1.0
vn 0.0 0.0 -1.0
vn 0.0 0.0 -1.0
vn 0.0 0.0 -1.0
vn 0.0 0.0 -1.0
vn 0.0 0.0 -1.0
vn 0.0 0.0 -1.0
vn 0.0 0.0 1.0
vn 0.0 0.0 1.0
vn 0.0 0.0 1.0
vn 0.0 0.0 1.0
vn 0.0 0.0 1.0
vn 0.0 0.0 1.0
vn 0.0 0.0 1.0
vn 0.0 0.0 1.0
vn 0.0 0.0 1.0
vn 0.0 0.0 1.0
vn 0.0 0.0 1.0
vn 0.0 0.0 1.0
vn 0.0 0.0 1.0
vn 0.0 0.0 1.0
vn 0.0 0.0 1.0
vn 0.0 0.0 1.0
vn 0.0 0.0 1.0
vn 0.0 0.0 1.0
vn 0.0 0.0 1.0
vn 0.0 0.0 1.0
vn 0.0 0.0 1.0
vn 0.0 0.0 1.0
vn 0.0 0.0 1.0
vn 0.0 0.0 1.0
vn 0.0 0.0 1.0
vn 0.0 0.0 1.0
vn 0.0 0.0 1.0
vn 0.0 0.0 1.0
vn 0.0 0.0 1.0
vn 0.0 0.0 1.0
vn 0.0 0.0 1.0
vn 0.0 0.0 1.0
vn 0.0 0.0 1.0
vn 0.0 0.0 1.0
vn 0.0 0.0 1.0
vn 0.0 0.0 1.0
vn 0.0 0.0 1.0
vn 0.0 0.0 1.0
vn 0.0 0.0 1.0
vn 0.0 0.0 1.0
vn 0.0 0.0 1.0
vn 0.0 0.0 1.0
vn 0.0 0.0 1.0
vn 0.0 0.0 1.0
vn 0.0 0.0 1.0
vn 0.0 0.0 1.0
vn 0.0 0.0 1.0
vn 0.0 0.0 1.0
vn 0.0 0.0 1.0
vn 0.0 0.0 1.0
vn 0.0 0.0 1.0
vn 0.0 0.0 1.0
vn 0.0 0.0 1.0
vn 0.0 0.0 1.0
vn 0.0 0.0 1.0
vn 0.0 0.0 1.0
vn 0.0 0.0 1.0
vn 0.0 0.0 1.0
vn 0.0 0.0 1.0
vn 0.0 0.0 1.0
vn 0.0 0.0 1.0
vn 0.993182361125946 -0.11657062917947769 0.0
vn 0.993182361125946 -0.11657062917947769 0.0
vn 0.9760597348213196 0.21750272810459137 0.0
vn 0.9760597348213196 0.21750272810459137 -0.0
vn 0.8939750790596008 0.44811657071113586 0.0
vn 0.8939750790596008 0.44811657071113586 -0.0
vn 0.8147754073143005 0.5797767639160156 -0.0
vn 0.8147754073143005 0.5797767639160156 0.0
vn 0.4382062256336212 -0.8988744020462036 0.0
vn 0.4382062256336212 -0.8988744020462036 0.0
vn 0.6349353790283203 -0.7725651860237122 0.0
vn 0.8076261878013611 -0.5896947979927063 0.0
vn 0.6349353790283203 -0.7725651860237122 0.0
vn 0.8076261878013611 -0.5896947979927063 0.0
vn 0.9127214550971985 -0.40858227014541626 0.0
vn 0.9127214550971985 -0.40858227014541626 0.0
vn 0.9865878820419312 -0.16323068737983704 0.0
vn 0.9865878820419312 -0.16323068737983704 0.0
vn 0.8838798999786377 -0.4677139222621918 0.0
vn 0.8838798999786377 -0.4677139222621918 0.0
vn 0.7023177146911621 -0.7118636965751648 0.0
vn 0.7023177146911621 -0.7118636965751648 0.0
vn 0.46971893310546875 -0.8828160762786865 0.0
vn 0.46971893310546875 -0.8828160762786865 0.0
vn 0.2541707158088684 -0.9671593904495239 0.0
vn 0.2541707158088684 -0.9671593904495239 0.0
vn 0.08415137231349945 -0.9964529275894165 0.0
vn 0.08415137231349945 -0.9964529275894165 0.0
vn 0.16327592730522156 0.9865804314613342 -0.0
vn 0.16327592730522156 0.9865804314613342 0.0
vn 0.4678409695625305 0.8838127255439758 0.0
vn 0.4678409695625305 0.8838127255439758 -0.0
vn 0.7120513319969177 0.7021274566650391 0.0
vn 0.7120513319969177 0.7021274566650391 -0.0
vn 0.882996678352356 0.46937915682792664 0.0
vn 0.882996678352356 0.46937915682792664 -0.0
vn 0.9672729969024658 0.2537379264831543 0.0
vn 0.9672729969024658 0.2537379264831543 -0.0
vn 0.9964923858642578 0.08368349075317383 0.0
vn 0.9964923858642578 0.08368349075317383 -0.0
vn -0.9866545796394348 0.1628275066614151 0.0
vn -0.9866545796394348 0.1628275066614151 0.0
vn -0.8839848041534424 0.4675155580043793 0.0
vn -0.8839848041534424 0.4675155580043793 0.0
vn -0.702314555644989 0.7118666768074036 0.0
vn -0.702314555644989 0.7118666768074036 0.0
vn -0.46952271461486816 0.8829204440116882 0.0
vn -0.46952271461486816 0.8829204440116882 0.0
vn -0.2538181245326996 0.9672520160675049 0.0
vn -0.2538181245326996 0.9672520160675049 0.0
vn -0.08368521928787231 0.9964922070503235 0.0
vn -0.08368521928787231 0.9964922070503235 0.0
vn -0.16276589035987854 -0.9866647720336914 0.0
vn -0.16276589035987854 -0.9866647720336914 0.0
vn -0.4673762023448944 -0.8840585350990295 0.0
vn -0.4673762023448944 -0.8840585350990295 0.0
vn -0.711688756942749 -0.7024949193000793 0.0
vn -0.711688756942749 -0.7024949193000793 0.0
vn -0.8827537894248962 -0.4698358178138733 0.0
vn -0.8827537894248962 -0.4698358178138733 0.0
vn -0.9671369791030884 -0.25425609946250916 0.0
vn -0.9671369791030884 -0.25425609946250916 0.0
vn -0.9964499473571777 -0.08418706059455872 0.0
vn -0.9964499473571777 -0.08418706059455872 0.0
vn 0.9866583943367004 -0.16280457377433777 0.0
vn 0.9866583943367004 -0.16280457377433777 0.0
vn 0.8839797973632812 -0.46752503514289856 0.0
vn 0.8839797973632812 -0.46752503514289856 0.0
vn 0.702314555644989 -0.7118666768074036 0.0
vn 0.702314555644989 -0.7118666768074036 0.0
vn 0.46952271461486816 -0.8829204440116882 0.0
vn 0.46952271461486816 -0.8829204440116882 0.0
vn 0.2538181245326996 -0.9672520160675049 0.0
vn 0.2538181245326996 -0.9672520160675049 0.0
vn 0.0836833119392395 -0.9964923858642578 0.0
vn 0.0836833119392395 -0.9964923858642578 0.0
vn 0.16276589035987854 0.9866647720336914 -0.0
vn 0.16276589035987854 0.9866647720336914 0.0
vn 0.4673762023448944 0.8840585350990295 0.0
vn 0.4673762023448944 0.8840585350990295 -0.0
vn 0.711688756942749 0.7024949193000793 0.0
vn 0.711688756942749 0.7024949193000793 -0.0
vn 0.8827468156814575 0.4698491096496582 0.0
vn 0.8827468156814575 0.4698491096496582 -0.0
vn 0.9671429395675659 0.254233181476593 0.0
vn 0.9671429395675659 0.254233181476593 -0.0
vn 0.996449887752533 0.08418802171945572 0.0
vn 0.996449887752533 0.08418802171945572 -0.0
vn -0.16327592730522156 -0.9865804314613342 0.0
vn -0.16327592730522156 -0.9865804314613342 0.0
vn -0.4678412079811096 -0.8838125467300415 0.0
vn -0.4678412079811096 -0.8838125467300415 0.0
vn -0.7120545506477356 -0.7021241784095764 0.0
vn -0.7120545506477356 -0.7021241784095764 0.0
vn -0.8829911351203918 -0.4693896472454071 0.0
vn -0.8829911351203918 -0.4693896472454071 0.0
vn -0.9672729969024658 -0.2537379264831543 0.0
vn -0.9672729969024658 -0.2537379264831543 0.0
vn -0.9964923858642578 -0.08368349075317383 0.0
vn -0.9964923858642578 -0.08368349075317383 0.0
vn -0.9865860342979431 0.1632421612739563 0.0
vn -0.9865860342979431 0.1632421612739563 0.0
vn -0.8838836550712585 0.46770697832107544 0.0
vn -0.8838836550712585 0.46770697832107544 0.0
vn -0.7023110389709473 0.7118701338768005 0.0
vn -0.7023110389709473 0.7118701338768005 0.0
vn -0.46971336007118225 0.8828190565109253 0.0
vn -0.46971336007118225 0.8828190565109253 0.0
vn -0.2541658878326416 0.9671605825424194 0.0
vn -0.2541658878326416 0.9671605825424194 0.0
vn -0.08416465669870377 0.9964518547058105 0.0
vn -0.08416465669870377 0.9964518547058105 0.0
f 1//1 2//1 3//1 
f 3//2 2//2 4//2 
f 5//3 1//3 6//3 
f 6//4 1//4 3//4 
f 2//5 7//5 4//5 
f 4//6 7//6 8//6 
f 2//7 9//7 10//7 
f 2//8 11//8 9//8 
f 2//9 12//9 11//9 
f 2//10 13//10 12//10 
f 1//11 14//11 2//11 
f 2//12 14//12 13//12 
f 1//13 15//13 14//13 
f 1//14 16//14 15//14 
f 17//15 7//15 18//15 
f 18//16 7//16 19//16 
f 19//17 7//17 20//17 
f 20//18 7//18 21//18 
f 21//19 7//19 22//19 
f 22//20 7//20 10//20 
f 10//21 7//21 2//21 
f 1//22 23//22 16//22 
f 1//23 24//23 23//23 
f 7//24 25//24 26//24 
f 7//25 27//25 25//25 
f 7//26 28//26 27//26 
f 25//27 29//27 26//27 
f 7//28 30//28 28//28 
f 17//29 30//29 7//29 
f 29//30 31//30 26//30 
f 17//31 32//31 30//31 
f 33//32 32//32 17//32 
f 31//33 34//33 26//33 
f 33//34 35//34 32//34 
f 36//35 35//35 33//35 
f 34//36 37//36 26//36 
f 38//37 37//37 34//37 
f 38//38 39//38 37//38 
f 36//39 40//39 35//39 
f 41//40 40//40 36//40 
f 42//41 43//41 39//41 
f 39//42 43//42 37//42 
f 44//43 45//43 42//43 
f 42//44 45//44 43//44 
f 46//45 47//45 48//45 
f 48//46 47//46 49//46 
f 49//47 47//47 44//47 
f 44//48 47//48 45//48 
f 50//49 51//49 52//49 
f 52//50 51//50 53//50 
f 53//51 51//51 46//51 
f 46//52 51//52 47//52 
f 50//53 54//53 51//53 
f 55//54 54//54 56//54 
f 56//55 54//55 57//55 
f 57//56 54//56 50//56 
f 40//57 5//57 58//57 
f 58//58 5//58 55//58 
f 59//59 5//59 60//59 
f 60//60 5//60 61//60 
f 61//61 5//61 62//61 
f 41//62 5//62 40//62 
f 62//63 5//63 63//63 
f 63//64 5//64 41//64 
f 55//65 5//65 54//65 
f 1//66 5//66 59//66 
f 1//67 59//67 24//67 
f 64//68 4//68 65//68 
f 66//69 4//69 64//69 
f 67//70 4//70 66//70 
f 68//71 4//71 67//71 
f 69//72 3//72 4//72 
f 69//73 4//73 68//73 
f 70//74 3//74 69//74 
f 71//75 3//75 70//75 
f 8//76 72//76 73//76 
f 8//77 73//77 74//77 
f 8//78 74//78 75//78 
f 8//79 75//79 76//79 
f 8//80 76//80 77//80 
f 8//81 77//81 65//81 
f 8//82 65//82 4//82 
f 78//83 3//83 71//83 
f 79//84 3//84 78//84 
f 80//85 8//85 81//85 
f 82//86 8//86 80//86 
f 83//87 8//87 82//87 
f 84//88 80//88 81//88 
f 85//89 8//89 83//89 
f 85//90 72//90 8//90 
f 86//91 84//91 81//91 
f 87//92 72//92 85//92 
f 87//93 88//93 72//93 
f 89//94 86//94 81//94 
f 90//95 88//95 87//95 
f 90//96 91//96 88//96 
f 92//97 89//97 81//97 
f 92//98 93//98 89//98 
f 94//99 93//99 92//99 
f 95//100 91//100 90//100 
f 95//101 96//101 91//101 
f 97//102 98//102 94//102 
f 97//103 94//103 92//103 
f 99//104 100//104 98//104 
f 99//105 98//105 97//105 
f 101//106 102//106 103//106 
f 101//107 103//107 104//107 
f 101//108 104//108 100//108 
f 101//109 100//109 99//109 
f 105//110 106//110 107//110 
f 105//111 107//111 108//111 
f 105//112 108//112 102//112 
f 105//113 102//113 101//113 
f 109//114 106//114 105//114 
f 109//115 110//115 111//115 
f 109//116 111//116 112//116 
f 109//117 112//117 106//117 
f 6//118 95//118 113//118 
f 6//119 113//119 110//119 
f 6//120 114//120 115//120 
f 6//121 115//121 116//121 
f 6//122 116//122 117//122 
f 6//123 96//123 95//123 
f 6//124 117//124 118//124 
f 6//125 118//125 96//125 
f 6//126 110//126 109//126 
f 6//127 3//127 114//127 
f 114//128 3//128 79//128 
f 45//129 47//129 99//129 
f 99//130 47//130 101//130 
f 101//131 51//131 105//131 
f 47//132 51//132 101//132 
f 105//133 54//133 109//133 
f 51//134 54//134 105//134 
f 54//135 6//135 109//135 
f 54//136 5//136 6//136 
f 7//137 26//137 8//137 
f 8//138 26//138 81//138 
f 81//139 37//139 92//139 
f 92//140 37//140 97//140 
f 26//141 37//141 81//141 
f 37//142 43//142 97//142 
f 97//143 45//143 99//143 
f 43//144 45//144 97//144 
f 32//145 35//145 87//145 
f 87//146 35//146 90//146 
f 90//147 40//147 95//147 
f 35//148 40//148 90//148 
f 95//149 58//149 113//149 
f 40//150 58//150 95//150 
f 113//151 55//151 110//151 
f 58//152 55//152 113//152 
f 110//153 56//153 111//153 
f 55//154 56//154 110//154 
f 111//155 57//155 112//155 
f 56//156 57//156 111//156 
f 31//157 29//157 86//157 
f 86//158 29//158 84//158 
f 84//159 25//159 80//159 
f 29//160 25//160 84//160 
f 80//161 27//161 82//161 
f 25//162 27//162 80//162 
f 82//163 28//163 83//163 
f 27//164 28//164 82//164 
f 83//165 30//165 85//165 
f 28//166 30//166 83//166 
f 85//167 32//167 87//167 
f 30//168 32//168 85//168 
f 49//169 44//169 104//169 
f 104//170 44//170 100//170 
f 100//171 42//171 98//171 
f 44//172 42//172 100//172 
f 98//173 39//173 94//173 
f 42//174 39//174 98//174 
f 94//175 38//175 93//175 
f 39//176 38//176 94//176 
f 93//177 34//177 89//177 
f 38//178 34//178 93//178 
f 89//179 31//179 86//179 
f 34//180 31//180 89//180 
f 57//181 50//181 112//181 
f 112//182 50//182 106//182 
f 106//183 52//183 107//183 
f 50//184 52//184 106//184 
f 107//185 53//185 108//185 
f 52//186 53//186 107//186 
f 108//187 46//187 102//187 
f 53//188 46//188 108//188 
f 102//189 48//189 103//189 
f 46//190 48//190 102//190 
f 103//191 49//191 104//191 
f 48//192 49//192 103//192 
f 13//193 14//193 68//193 
f 68//194 14//194 69//194 
f 69//195 15//195 70//195 
f 14//196 15//196 69//196 
f 70//197 16//197 71//197 
f 15//198 16//198 70//198 
f 71//199 23//199 78//199 
f 16//200 23//200 71//200 
f 78//201 24//201 79//201 
f 23//202 24//202 78//202 
f 79//203 59//203 114//203 
f 24//204 59//204 79//204 
f 21//205 22//205 76//205 
f 76//206 22//206 77//206 
f 77//207 10//207 65//207 
f 22//208 10//208 77//208 
f 65//209 9//209 64//209 
f 10//210 9//210 65//210 
f 64//211 11//211 66//211 
f 9//212 11//212 64//212 
f 66//213 12//213 67//213 
f 11//214 12//214 66//214 
f 67//215 13//215 68//215 
f 12//216 13//216 67//216 
f 59//217 60//217 114//217 
f 114//218 60//218 115//218 
f 115//219 61//219 116//219 
f 60//220 61//220 115//220 
f 116//221 62//221 117//221 
f 61//222 62//222 116//222 
f 117//223 63//223 118//223 
f 62//224 63//224 117//224 
f 118//225 41//225 96//225 
f 63//226 41//226 118//226 
f 96//227 36//227 91//227 
f 41//228 36//228 96//228 
f 36//229 33//229 91//229 
f 91//230 33//230 88//230 
f 88//231 17//231 72//231 
f 33//232 17//232 88//232 
f 72//233 18//233 73//233 
f 17//234 18//234 72//234 
f 73//235 19//235 74//235 
f 18//236 19//236 73//236 
f 74//237 20//237 75//237 
f 19//238 20//238 74//238 
f 75//239 21//239 76//239 
f 20//240 21//240 75//240 
